<svg xmlns="http://www.w3.org/2000/svg" width="28.501" height="28.501" viewBox="0 0 28.501 28.501">
  <path id="freeway" d="M27.61,12.469H26.72v4.453a.891.891,0,0,1-1.781,0V12.469H3.563v4.453a.856.856,0,0,1-.264.626.874.874,0,0,1-1.252,0,.856.856,0,0,1-.264-.626V12.469H.891A.856.856,0,0,1,.264,12.2.856.856,0,0,1,0,11.579V9.8a.856.856,0,0,1,.264-.626.856.856,0,0,1,.626-.264H27.61A.9.9,0,0,1,28.5,9.8v1.781a.9.9,0,0,1-.891.891ZM16.032.891A.856.856,0,0,1,16.3.264.856.856,0,0,1,16.922,0H18.7a.856.856,0,0,1,.626.264.856.856,0,0,1,.264.626l1.252,6.235H16.032Zm-7.125,0A.856.856,0,0,1,9.171.264.856.856,0,0,1,9.8,0h1.781A.856.856,0,0,1,12.2.264a.856.856,0,0,1,.264.626V7.125H7.654Zm3.563,13.36V27.61a.9.9,0,0,1-.891.891H4.453a.9.9,0,0,1-.891-.891L6.235,14.25ZM24.938,27.61a.9.9,0,0,1-.891.891H16.922a.9.9,0,0,1-.891-.891V14.25h6.235Z" fill="#ffffff" opacity="1"/>
</svg>
