<svg xmlns="http://www.w3.org/2000/svg" width="150" height="120" viewBox="0 0 150 120">
  <g id="Group_387" data-name="Group 387" transform="translate(-466 -1258)">
    <rect id="Rectangle_322" data-name="Rectangle 322" width="150" height="120" transform="translate(466 1258)" fill="#fff"/>
    <g id="Group_375" data-name="Group 375" transform="translate(473.25 1249.163)">
      <path id="Path_886" data-name="Path 886" d="M117.957,67.7,94.082,39.283a1.25,1.25,0,0,0-2.207.8V53.96h-19.5a1.251,1.251,0,0,0-1.25,1.25V81.791a1.25,1.25,0,0,0,1.25,1.25h19.5V96.913a1.25,1.25,0,0,0,2.207.8l23.875-28.412A1.25,1.25,0,0,0,117.957,67.7ZM94.375,93.482V81.791a1.25,1.25,0,0,0-1.25-1.25h-19.5V56.46h19.5a1.25,1.25,0,0,0,1.25-1.25V43.518L115.367,68.5Z" fill="#005c9e"/>
      <path id="Path_887" data-name="Path 887" d="M64.628,53.96h-19.5V40.087a1.25,1.25,0,0,0-2.207-.8L19.043,67.7a1.25,1.25,0,0,0,0,1.609L42.916,97.717a1.25,1.25,0,0,0,2.207-.8V83.041h19.5a1.25,1.25,0,0,0,1.25-1.25V55.21a1.251,1.251,0,0,0-1.25-1.25Zm-1.25,26.581h-19.5a1.25,1.25,0,0,0-1.25,1.25V93.482L21.633,68.5l20.99-24.982V55.21a1.25,1.25,0,0,0,1.25,1.25h19.5Z" fill="#005c9e"/>
    </g>
  </g>
</svg>
