<svg xmlns="http://www.w3.org/2000/svg" width="150" height="141.812" viewBox="0 0 150 141.812">
  <g id="Group_381" data-name="Group 381" transform="translate(-470 -1477.75)">
    <rect id="Rectangle_323" data-name="Rectangle 323" width="150" height="120" transform="translate(470 1478)" fill="#fff"/>
    <g id="Group_374" data-name="Group 374" transform="translate(478.018 1476.947)">
      <path id="Path_861" data-name="Path 861" d="M66.183,1.053a.777.777,0,0,0-.777.777V8.046a.777.777,0,1,0,1.554,0V1.83A.777.777,0,0,0,66.183,1.053Z" transform="translate(1.139)" fill="#005c9e" stroke="#005c9e" stroke-width="0.5"/>
      <path id="Path_862" data-name="Path 862" d="M66.183,40.572a.777.777,0,0,0-.777.777V52.924a.777.777,0,1,0,1.554,0V41.349A.777.777,0,0,0,66.183,40.572Z" transform="translate(1.139 1.422)" fill="#005c9e" stroke="#005c9e" stroke-width="0.5"/>
      <path id="Path_863" data-name="Path 863" d="M66.183,18.226a.777.777,0,0,0-.777.777V30.578a.777.777,0,1,0,1.554,0V19A.777.777,0,0,0,66.183,18.226Z" transform="translate(1.139 0.618)" fill="#005c9e" stroke="#005c9e" stroke-width="0.5"/>
      <path id="Path_864" data-name="Path 864" d="M66.183,62.919a.777.777,0,0,0-.777.777V75.271a.777.777,0,0,0,1.554,0V63.7A.777.777,0,0,0,66.183,62.919Z" transform="translate(1.139 2.226)" fill="#005c9e" stroke="#005c9e" stroke-width="0.5"/>
      <path id="Path_865" data-name="Path 865" d="M66.183,85.265a.777.777,0,0,0-.777.777V97.617a.777.777,0,1,0,1.554,0V86.042A.777.777,0,0,0,66.183,85.265Z" transform="translate(1.139 3.03)" fill="#005c9e" stroke="#005c9e" stroke-width="0.5"/>
      <path id="Path_866" data-name="Path 866" d="M66.183,107.611a.777.777,0,0,0-.777.777v11.575a.777.777,0,0,0,1.554,0V108.388A.777.777,0,0,0,66.183,107.611Z" transform="translate(1.139 3.834)" fill="#005c9e" stroke="#005c9e" stroke-width="0.5"/>
      <path id="Path_867" data-name="Path 867" d="M66.183,129.958a.777.777,0,0,0-.777.777v6.216a.777.777,0,1,0,1.554,0v-6.216A.777.777,0,0,0,66.183,129.958Z" transform="translate(1.139 4.637)" fill="#005c9e" stroke="#005c9e" stroke-width="0.5"/>
      <path id="Path_868" data-name="Path 868" d="M34.527,1.478a.777.777,0,0,0-.777.777V8.471a.777.777,0,1,0,1.554,0V2.255A.777.777,0,0,0,34.527,1.478Z" transform="translate(0 0.015)" fill="#005c9e" stroke="#005c9e" stroke-width="0.5"/>
      <path id="Path_869" data-name="Path 869" d="M34.527,40.882a.777.777,0,0,0-.777.777V53.194a.777.777,0,1,0,1.554,0V41.659A.777.777,0,0,0,34.527,40.882Z" transform="translate(0 1.433)" fill="#005c9e" stroke="#005c9e" stroke-width="0.5"/>
      <path id="Path_870" data-name="Path 870" d="M34.527,107.689a.777.777,0,0,0-.777.777V120a.777.777,0,1,0,1.554,0V108.466A.777.777,0,0,0,34.527,107.689Z" transform="translate(0 3.836)" fill="#005c9e" stroke="#005c9e" stroke-width="0.5"/>
      <path id="Path_871" data-name="Path 871" d="M34.527,18.613a.777.777,0,0,0-.777.777V30.925a.777.777,0,1,0,1.554,0V19.39A.777.777,0,0,0,34.527,18.613Z" transform="translate(0 0.632)" fill="#005c9e" stroke="#005c9e" stroke-width="0.5"/>
      <path id="Path_872" data-name="Path 872" d="M34.527,63.151a.777.777,0,0,0-.777.777V75.463a.777.777,0,0,0,1.554,0V63.928A.777.777,0,0,0,34.527,63.151Z" transform="translate(0 2.234)" fill="#005c9e" stroke="#005c9e" stroke-width="0.5"/>
      <path id="Path_873" data-name="Path 873" d="M34.527,85.42a.777.777,0,0,0-.777.777V97.732a.777.777,0,0,0,1.554,0V86.2A.777.777,0,0,0,34.527,85.42Z" transform="translate(0 3.035)" fill="#005c9e" stroke="#005c9e" stroke-width="0.5"/>
      <path id="Path_874" data-name="Path 874" d="M34.527,129.958a.777.777,0,0,0-.777.777v6.216a.777.777,0,1,0,1.554,0v-6.216A.777.777,0,0,0,34.527,129.958Z" transform="translate(0 4.637)" fill="#005c9e" stroke="#005c9e" stroke-width="0.5"/>
      <path id="Path_875" data-name="Path 875" d="M60.567,85.768a6.9,6.9,0,0,0-2.025-5.352,8.465,8.465,0,0,0-5.853-1.831,8.466,8.466,0,0,0-5.854,1.831,6.9,6.9,0,0,0-2.026,5.352,39.881,39.881,0,0,0,.49,6.956l-1.345.661.39.791.115.232.232-.114.8-.394,0,.01v.131h.017a5.247,5.247,0,0,1,.047.656c0,.5-.092,1.728-.211,3.275-.225,2.925-.535,6.933-.535,10.217a4.5,4.5,0,0,0,2.7,4.516,9.918,9.918,0,0,0,3.965.634c.251,0,.488,0,.7-.007.184,0,.347,0,.51,0s.326,0,.51,0c.219,0,.455.007.706.007a9.564,9.564,0,0,0,4.218-.759,4.525,4.525,0,0,0,2.446-4.39c0-3.284-.309-7.292-.534-10.217-.119-1.547-.212-2.775-.212-3.275a5.247,5.247,0,0,1,.047-.656h.018V93.9l1.031.508.115-.232.276-.558.114-.233-1.345-.661A39.774,39.774,0,0,0,60.567,85.768ZM56.977,111.8l-.4-.487-.206-.037a8.1,8.1,0,0,0-1.358-.137,1.921,1.921,0,0,0-1.063.232,1.225,1.225,0,0,0-.39.6c-.026.075-.033.147-.053.223-.1,0-.2,0-.3,0-.188,0-.364,0-.525,0s-.339,0-.526,0c-.157,0-.328,0-.5.005-.021-.076-.028-.15-.054-.225a1.217,1.217,0,0,0-.39-.6,1.9,1.9,0,0,0-1.063-.233,8.1,8.1,0,0,0-1.358.137l-.112.02-.094.018-.347.424a4.2,4.2,0,0,1-.551-.225c-.037-.02-.07-.045-.106-.065l.969-1.331a2.09,2.09,0,0,0,.605.1h7.051a2.1,2.1,0,0,0,.606-.1l.972,1.335c-.061.036-.117.076-.183.109A4.525,4.525,0,0,1,56.977,111.8ZM47.732,81.163c-.009.018-.016.04-.025.057a2.524,2.524,0,0,1-.378.542.433.433,0,0,1-.263.161h-.034a4.559,4.559,0,0,1,.588-.681C47.654,81.212,47.7,81.193,47.732,81.163Zm-1.335,1.9h.669a1.5,1.5,0,0,0,1.053-.487,5.793,5.793,0,0,0,1.191-2.3,10.652,10.652,0,0,1,6.755,0,8.047,8.047,0,0,0,.507,1.3,3.851,3.851,0,0,0,.685,1,1.5,1.5,0,0,0,1.054.487h.669a7.527,7.527,0,0,1,.449,2.706,43.984,43.984,0,0,1-.288,5.484,5.985,5.985,0,0,0-1.387-1.546,8.55,8.55,0,0,0-10.13,0,6,6,0,0,0-1.387,1.546,43.828,43.828,0,0,1-.287-5.484A7.527,7.527,0,0,1,46.4,83.062Zm11.913-1.14a.432.432,0,0,1-.264-.161,2.581,2.581,0,0,1-.394-.593c.031.027.073.046.1.073a4.506,4.506,0,0,1,.589.681Zm-9.929,8.633a7.451,7.451,0,0,1,8.613,0,4.648,4.648,0,0,1,1.4,1.692L57.5,93.66a2.1,2.1,0,0,0-1.29-.448H49.162a2.1,2.1,0,0,0-1.29.448l-.886-1.413A4.645,4.645,0,0,1,48.381,90.556Zm-.2,4.782a.989.989,0,0,1,.985-.985h7.051a.988.988,0,0,1,.985.985V108.09a.989.989,0,0,1-.985.986H49.162a.99.99,0,0,1-.985-.986Zm-1.7,2.723c.12-1.565.214-2.793.215-3.363a6.776,6.776,0,0,0-.064-.864v-.008l.526.839a2.11,2.11,0,0,0-.119.673V108.09a2.105,2.105,0,0,0,.553,1.418l-.88,1.208a3.858,3.858,0,0,1-.762-2.527C45.948,104.959,46.255,100.972,46.479,98.06Zm12.19,12.663-.884-1.215a2.11,2.11,0,0,0,.553-1.418V95.338a2.078,2.078,0,0,0-.12-.673l.526-.839v.007a6.618,6.618,0,0,0-.063.865c0,.57.1,1.8.215,3.363.224,2.912.53,6.9.53,10.129A3.883,3.883,0,0,1,58.669,110.723Z" transform="translate(0.367 2.789)" fill="#005c9e" stroke="#005c9e" stroke-width="0.5"/>
      <path id="Path_876" data-name="Path 876" d="M75,25.294l.114.232.232-.114.8-.394,0,.01v.132h.017a5.231,5.231,0,0,1,.047.655c0,.5-.092,1.729-.211,3.276-.225,2.925-.534,6.932-.534,10.216a4.5,4.5,0,0,0,2.7,4.517,9.932,9.932,0,0,0,3.965.633c.251,0,.488,0,.7-.006.184,0,.347,0,.511,0s.325,0,.51,0c.218,0,.454.006.7.006a9.55,9.55,0,0,0,4.218-.759,4.523,4.523,0,0,0,2.446-4.39c0-3.284-.309-7.291-.534-10.216-.119-1.547-.212-2.776-.211-3.276a5.427,5.427,0,0,1,.046-.655h.018v-.132l0-.01,1.031.508.114-.232.276-.557.114-.233-1.344-.661a39.931,39.931,0,0,0,.489-6.957A6.9,6.9,0,0,0,89.2,11.535,8.461,8.461,0,0,0,83.343,9.7a8.46,8.46,0,0,0-5.853,1.83,6.9,6.9,0,0,0-2.025,5.352,39.833,39.833,0,0,0,.489,6.957l-1.345.661Zm3.39-13.012c-.009.018-.017.039-.026.056a2.463,2.463,0,0,1-.378.542.425.425,0,0,1-.263.161h-.034a4.5,4.5,0,0,1,.588-.68C78.31,12.331,78.355,12.312,78.389,12.283Zm-1.336,1.9h.669a1.5,1.5,0,0,0,1.053-.487,5.789,5.789,0,0,0,1.191-2.3,10.645,10.645,0,0,1,6.756,0,8.064,8.064,0,0,0,.506,1.3,3.83,3.83,0,0,0,.686,1,1.5,1.5,0,0,0,1.053.487h.669a7.521,7.521,0,0,1,.449,2.7,43.786,43.786,0,0,1-.288,5.485,5.969,5.969,0,0,0-1.387-1.546,8.545,8.545,0,0,0-10.13,0,5.964,5.964,0,0,0-1.386,1.546,43.8,43.8,0,0,1-.288-5.485A7.521,7.521,0,0,1,77.053,14.181Zm11.913-1.141a.425.425,0,0,1-.263-.161,2.548,2.548,0,0,1-.395-.592c.031.027.073.045.1.073a4.5,4.5,0,0,1,.588.68ZM87.634,42.919l-.4-.487-.206-.037a8.219,8.219,0,0,0-1.359-.137,1.9,1.9,0,0,0-1.061.233h0a1.214,1.214,0,0,0-.388.6c-.026.074-.033.147-.054.223l-.3,0c-.188,0-.364-.005-.526-.005s-.338,0-.525.005l-.5.005c-.021-.077-.028-.15-.054-.225a1.208,1.208,0,0,0-.39-.6h0a1.911,1.911,0,0,0-1.063-.233,8.217,8.217,0,0,0-1.358.137l-.112.021-.093.017-.348.425a4.415,4.415,0,0,1-.551-.226c-.037-.02-.069-.044-.106-.065l.969-1.33a2.091,2.091,0,0,0,.606.1h7.05a2.091,2.091,0,0,0,.606-.1l.972,1.335c-.061.035-.117.075-.182.109A4.623,4.623,0,0,1,87.634,42.919Zm-8.6-21.246a7.454,7.454,0,0,1,8.612,0,4.665,4.665,0,0,1,1.4,1.692l-.886,1.413a2.113,2.113,0,0,0-1.291-.448h-7.05a2.111,2.111,0,0,0-1.291.448l-.886-1.413A4.665,4.665,0,0,1,79.038,21.674Zm-.205,4.783a.989.989,0,0,1,.986-.985h7.05a.989.989,0,0,1,.986.985V39.209a.989.989,0,0,1-.986.985h-7.05a.989.989,0,0,1-.986-.985Zm-1.7,2.723c.12-1.565.214-2.794.215-3.364a6.6,6.6,0,0,0-.064-.864v-.007l.526.839a2.1,2.1,0,0,0-.119.673V39.209a2.108,2.108,0,0,0,.553,1.417l-.88,1.209a3.861,3.861,0,0,1-.762-2.528C76.6,36.078,76.91,32.091,77.135,29.179ZM89.326,41.841l-.885-1.215a2.108,2.108,0,0,0,.553-1.417V26.457a2.1,2.1,0,0,0-.119-.673l.526-.839v.007a6.606,6.606,0,0,0-.064.864c0,.57.1,1.8.215,3.364.224,2.912.53,6.9.53,10.128A3.887,3.887,0,0,1,89.326,41.841Z" transform="translate(1.47 0.311)" fill="#005c9e" stroke="#005c9e" stroke-width="0.5"/>
      <path id="Path_877" data-name="Path 877" d="M75.114,69.026l.232-.114.8-.394,0,.01v.132h.017a5.231,5.231,0,0,1,.047.655c0,.5-.092,1.729-.211,3.276-.225,2.924-.534,6.932-.534,10.216a4.5,4.5,0,0,0,2.7,4.517,9.933,9.933,0,0,0,3.965.633c.25,0,.488,0,.707-.007.182,0,.345,0,.509,0l.51,0c.218,0,.455.007.7.007a9.55,9.55,0,0,0,4.218-.759,4.525,4.525,0,0,0,2.446-4.39c0-3.284-.309-7.292-.534-10.216-.119-1.547-.212-2.776-.211-3.276a5.427,5.427,0,0,1,.046-.655h.018v-.132l0-.01,1.031.508.114-.232.276-.557L92.078,68l-1.344-.662a39.906,39.906,0,0,0,.489-6.956A6.9,6.9,0,0,0,89.2,55.035a8.461,8.461,0,0,0-5.854-1.83,8.46,8.46,0,0,0-5.853,1.83,6.9,6.9,0,0,0-2.025,5.352,39.833,39.833,0,0,0,.489,6.957L74.609,68l.391.79Zm3.276-13.244c-.009.018-.017.039-.026.056a2.462,2.462,0,0,1-.378.542.425.425,0,0,1-.263.161h-.034a4.5,4.5,0,0,1,.588-.68C78.31,55.831,78.355,55.812,78.389,55.783Zm-1.336,1.9h.669a1.5,1.5,0,0,0,1.053-.487,5.789,5.789,0,0,0,1.191-2.3,10.645,10.645,0,0,1,6.756,0,8.063,8.063,0,0,0,.506,1.3,3.83,3.83,0,0,0,.686,1,1.5,1.5,0,0,0,1.053.487h.669a7.521,7.521,0,0,1,.449,2.7,43.786,43.786,0,0,1-.288,5.485,5.969,5.969,0,0,0-1.387-1.546,8.545,8.545,0,0,0-10.13,0,5.964,5.964,0,0,0-1.386,1.546,43.8,43.8,0,0,1-.288-5.485A7.521,7.521,0,0,1,77.053,57.681Zm11.913-1.141a.425.425,0,0,1-.263-.161,2.548,2.548,0,0,1-.395-.592c.031.027.073.045.1.073a4.5,4.5,0,0,1,.588.68ZM87.633,86.419l-.4-.485-.205-.039h0a8.2,8.2,0,0,0-1.358-.137,1.909,1.909,0,0,0-1.062.233,1.208,1.208,0,0,0-.39.6c-.026.074-.033.147-.054.223l-.3,0c-.188,0-.364-.006-.526-.006s-.338,0-.526.006l-.5,0c-.021-.077-.028-.15-.054-.225a1.208,1.208,0,0,0-.39-.6,1.911,1.911,0,0,0-1.063-.233,8.215,8.215,0,0,0-1.358.137h0l-.113.022-.092.018-.346.423a4.521,4.521,0,0,1-.552-.225c-.037-.021-.07-.045-.106-.066l.969-1.331a2.091,2.091,0,0,0,.606.1h7.05a2.091,2.091,0,0,0,.606-.1l.972,1.336c-.061.035-.117.075-.182.109A4.589,4.589,0,0,1,87.633,86.419Zm-8.6-21.246a7.454,7.454,0,0,1,8.612,0,4.665,4.665,0,0,1,1.4,1.692l-.886,1.413a2.113,2.113,0,0,0-1.291-.448h-7.05a2.111,2.111,0,0,0-1.291.448l-.886-1.413A4.665,4.665,0,0,1,79.038,65.174Zm-.205,4.783a.989.989,0,0,1,.986-.985h7.05a.989.989,0,0,1,.986.985V82.71a.989.989,0,0,1-.986.984h-7.05a.989.989,0,0,1-.986-.984Zm-1.7,2.723c.12-1.565.214-2.793.215-3.364a6.6,6.6,0,0,0-.064-.864v-.007l.526.839a2.1,2.1,0,0,0-.119.673V82.71a2.107,2.107,0,0,0,.553,1.416l-.88,1.209a3.859,3.859,0,0,1-.762-2.528C76.6,79.578,76.91,75.591,77.135,72.679Zm12.19,12.662-.884-1.214a2.112,2.112,0,0,0,.553-1.417V69.957a2.1,2.1,0,0,0-.119-.673l.526-.839v.007a6.606,6.606,0,0,0-.064.864c0,.571.1,1.8.215,3.364.224,2.912.53,6.9.53,10.128A3.881,3.881,0,0,1,89.325,85.341Z" transform="translate(1.47 1.876)" fill="#005c9e" stroke="#005c9e" stroke-width="0.5"/>
      <path id="Path_878" data-name="Path 878" d="M91.223,103.887A6.9,6.9,0,0,0,89.2,98.536a8.466,8.466,0,0,0-5.854-1.831,8.465,8.465,0,0,0-5.853,1.831,6.9,6.9,0,0,0-2.025,5.352,39.817,39.817,0,0,0,.489,6.956l-1.345.662.391.789.114.232.232-.114.8-.394,0,.01v.131h.017a5.247,5.247,0,0,1,.047.656c0,.5-.092,1.729-.211,3.276-.225,2.924-.534,6.932-.534,10.216a4.5,4.5,0,0,0,2.7,4.517,9.933,9.933,0,0,0,3.965.633c.25,0,.488,0,.707-.007l.509,0,.51,0c.218,0,.455.007.7.007a9.55,9.55,0,0,0,4.218-.759,4.525,4.525,0,0,0,2.446-4.39c0-3.284-.309-7.292-.534-10.216-.119-1.547-.212-2.776-.211-3.276a5.458,5.458,0,0,1,.046-.656h.018v-.131l0-.01,1.031.508.114-.232.276-.557.115-.232-1.345-.662A39.926,39.926,0,0,0,91.223,103.887Zm-3.59,26.032-.4-.485-.205-.039a8.146,8.146,0,0,0-1.36-.137,1.909,1.909,0,0,0-1.062.233,1.208,1.208,0,0,0-.39.6c-.026.074-.033.147-.054.223l-.3,0c-.188,0-.364-.006-.526-.006s-.338,0-.526.006l-.5,0c-.021-.077-.028-.15-.054-.225a1.208,1.208,0,0,0-.39-.6,1.911,1.911,0,0,0-1.063-.233,8.216,8.216,0,0,0-1.358.137l-.114.022-.092.018-.346.423a4.521,4.521,0,0,1-.552-.225c-.037-.021-.07-.045-.106-.066l.969-1.331a2.09,2.09,0,0,0,.606.1h7.05a2.09,2.09,0,0,0,.606-.1l.972,1.336c-.061.035-.117.075-.182.109A4.585,4.585,0,0,1,87.633,129.919ZM78.389,99.283c-.009.018-.017.039-.026.057a2.488,2.488,0,0,1-.378.542.431.431,0,0,1-.263.161h-.034a4.457,4.457,0,0,1,.588-.681C78.31,99.331,78.355,99.312,78.389,99.283Zm-1.336,1.9h.669a1.5,1.5,0,0,0,1.053-.487,5.789,5.789,0,0,0,1.191-2.3,10.655,10.655,0,0,1,6.756,0,8.12,8.12,0,0,0,.506,1.3,3.83,3.83,0,0,0,.686,1,1.5,1.5,0,0,0,1.053.487h.669a7.531,7.531,0,0,1,.449,2.706,43.78,43.78,0,0,1-.288,5.484,5.954,5.954,0,0,0-1.387-1.547,8.55,8.55,0,0,0-10.13,0,5.981,5.981,0,0,0-1.386,1.546,43.747,43.747,0,0,1-.288-5.483A7.531,7.531,0,0,1,77.053,101.181Zm11.913-1.14a.431.431,0,0,1-.263-.161,2.58,2.58,0,0,1-.395-.593c.031.027.073.045.1.073a4.456,4.456,0,0,1,.588.681Zm-9.928,8.632a7.454,7.454,0,0,1,8.612,0,4.659,4.659,0,0,1,1.4,1.693l-.886,1.412a2.1,2.1,0,0,0-1.291-.448h-7.05a2.111,2.111,0,0,0-1.291.448l-.886-1.412A4.649,4.649,0,0,1,79.038,108.674Zm-.205,4.783a.99.99,0,0,1,.986-.985h7.05a.99.99,0,0,1,.986.985V126.21a.989.989,0,0,1-.986.984h-7.05a.989.989,0,0,1-.986-.984Zm-1.7,2.723c.12-1.565.214-2.793.215-3.364a6.575,6.575,0,0,0-.064-.863v-.008l.526.839a2.105,2.105,0,0,0-.119.673V126.21a2.107,2.107,0,0,0,.553,1.416l-.88,1.209a3.859,3.859,0,0,1-.762-2.528C76.6,123.078,76.91,119.091,77.135,116.179Zm12.19,12.662-.884-1.214a2.112,2.112,0,0,0,.553-1.417V113.457a2.1,2.1,0,0,0-.119-.673l.526-.839v.007a6.606,6.606,0,0,0-.064.864c0,.571.1,1.8.215,3.364.224,2.912.53,6.9.53,10.128A3.881,3.881,0,0,1,89.325,128.841Z" transform="translate(1.47 3.441)" fill="#005c9e" stroke="#005c9e" stroke-width="0.5"/>
      <path id="Path_879" data-name="Path 879" d="M97.183,1.053a.777.777,0,0,0-.777.777V8.046a.777.777,0,0,0,1.554,0V1.83A.777.777,0,0,0,97.183,1.053Z" transform="translate(2.254)" fill="#005c9e" stroke="#005c9e" stroke-width="0.5"/>
      <path id="Path_880" data-name="Path 880" d="M97.183,18.226a.777.777,0,0,0-.777.777V30.578a.777.777,0,0,0,1.554,0V19A.777.777,0,0,0,97.183,18.226Z" transform="translate(2.254 0.618)" fill="#005c9e" stroke="#005c9e" stroke-width="0.5"/>
      <path id="Path_881" data-name="Path 881" d="M97.183,40.572a.777.777,0,0,0-.777.777V52.924a.777.777,0,0,0,1.554,0V41.349A.777.777,0,0,0,97.183,40.572Z" transform="translate(2.254 1.422)" fill="#005c9e" stroke="#005c9e" stroke-width="0.5"/>
      <path id="Path_882" data-name="Path 882" d="M97.183,107.611a.777.777,0,0,0-.777.777v11.575a.777.777,0,0,0,1.554,0V108.388A.777.777,0,0,0,97.183,107.611Z" transform="translate(2.254 3.834)" fill="#005c9e" stroke="#005c9e" stroke-width="0.5"/>
      <path id="Path_883" data-name="Path 883" d="M97.183,62.919a.777.777,0,0,0-.777.777V75.271a.777.777,0,0,0,1.554,0V63.7A.777.777,0,0,0,97.183,62.919Z" transform="translate(2.254 2.226)" fill="#005c9e" stroke="#005c9e" stroke-width="0.5"/>
      <path id="Path_884" data-name="Path 884" d="M97.183,85.265a.777.777,0,0,0-.777.777V97.617a.777.777,0,1,0,1.554,0V86.042A.777.777,0,0,0,97.183,85.265Z" transform="translate(2.254 3.03)" fill="#005c9e" stroke="#005c9e" stroke-width="0.5"/>
      <path id="Path_885" data-name="Path 885" d="M97.183,129.958a.777.777,0,0,0-.777.777v6.216a.777.777,0,1,0,1.554,0v-6.216A.777.777,0,0,0,97.183,129.958Z" transform="translate(2.254 4.637)" fill="#005c9e" stroke="#005c9e" stroke-width="0.5"/>
    </g>
  </g>
</svg>
