<svg xmlns="http://www.w3.org/2000/svg" width="150" height="120" viewBox="0 0 150 120">
  <g id="Group_386" data-name="Group 386" transform="translate(-462 -1706)">
    <rect id="Rectangle_324" data-name="Rectangle 324" width="150" height="120" transform="translate(462 1706)" fill="#fff"/>
    <g id="Group_371" data-name="Group 371" transform="translate(471.119 1702)">
      <path id="Path_764" data-name="Path 764" d="M66.185,21a43.3,43.3,0,1,0,43.3,43.3A43.3,43.3,0,0,0,66.185,21Zm29.4,72.7a41.571,41.571,0,1,1,12.176-29.4A41.438,41.438,0,0,1,95.581,93.7Z" fill="#005c9e" stroke="#005c9e" stroke-width="0.5"/>
      <path id="Path_765" data-name="Path 765" d="M69.569,31.5a34.032,34.032,0,0,0-20.2,6.622l-1.223.87.061.061.117.118L95.908,87.108l.049-.049.19.191.6-.786A34.194,34.194,0,0,0,69.569,31.5ZM92.523,42.756a32.41,32.41,0,0,1,3.436,41.857l-7.337-7.337V55.859A18.286,18.286,0,0,0,55.931,44.584l-5.265-5.265a32.412,32.412,0,0,1,41.857,3.437ZM77.8,66.449,63.736,52.387A7.458,7.458,0,0,1,77.8,55.859Zm-7.47-19.793a9.191,9.191,0,0,0-7.91,4.511l-5.289-5.29A16.554,16.554,0,0,1,86.89,55.859V75.642L79.529,68.28V55.859A9.2,9.2,0,0,0,70.327,46.656Z" transform="translate(-3.384 -1.406)" fill="#005c9e" stroke="#005c9e" stroke-width="0.5"/>
      <path id="Path_766" data-name="Path 766" d="M88.94,94.076l.152-.152L41.078,46.266l-.987,1.105a34.191,34.191,0,0,0,48.255,47.5l.786-.6ZM77.551,84.832l7.362,7.362v.394H77.551Zm-18.4-18.4V82.194H65.5L55.466,92.229,45.432,82.194h6.354V59.066Zm8.444,33.738A32.457,32.457,0,0,1,41.2,48.785l8.861,8.86c0,.062-.008.117-.008.191V80.462h-8.8L55.466,94.678,69.682,80.462h-8.8v-12L75.819,83.4V94.32H86.157A32.29,32.29,0,0,1,67.591,100.166Z" transform="translate(-1.406 -3.384)" fill="#005c9e" stroke="#005c9e" stroke-width="0.5"/>
    </g>
  </g>
</svg>
