<svg xmlns="http://www.w3.org/2000/svg" width="150" height="120" viewBox="0 0 150 120">
  <g id="Group_389" data-name="Group 389" transform="translate(-464 -793)">
    <rect id="Rectangle_320" data-name="Rectangle 320" width="150" height="120" transform="translate(464 793)" fill="#fff"/>
    <g id="Group_377" data-name="Group 377" transform="translate(494 822)">
      <text id="_140" data-name="140" transform="translate(68.199 59.437)" fill="#005c9e" font-size="12" font-family="Metropolis-ExtraBold, Metropolis" font-weight="800"><tspan x="0" y="0">140</tspan></text>
      <g id="Group_376" data-name="Group 376" transform="translate(0 0)">
        <path id="Path_888" data-name="Path 888" d="M544.4,41.975a40.824,40.824,0,0,0-40.778,40.777,41.259,41.259,0,0,0,.241,4.4l2.889-.31a38.726,38.726,0,0,1-.224-4.087,37.872,37.872,0,0,1,75.743,0,38.726,38.726,0,0,1-.224,4.087l2.888.31A40.739,40.739,0,0,0,544.4,41.975Z" transform="translate(-503.621 -41.975)" fill="#005c9e"/>
        <path id="Path_889" data-name="Path 889" d="M565.083,61.685l-15.272,8.6c-.084-.043-.173-.073-.258-.115-.321-.158-.646-.307-.981-.441-.2-.078-.394-.148-.593-.217-.255-.089-.513-.169-.775-.242-.233-.065-.466-.128-.7-.18s-.5-.1-.75-.138-.473-.083-.713-.109c-.39-.043-.787-.063-1.187-.072-.081,0-.161-.014-.242-.014h-.026c-.022,0-.041,0-.063,0-.324,0-.642.026-.96.048-.056,0-.112,0-.167.008a13.741,13.741,0,1,0,13.936,8.822l10.614-13.792a1.453,1.453,0,0,0-1.864-2.153Zm-21.56,31.383A10.586,10.586,0,0,1,533.33,79.526h.125a10.209,10.209,0,0,1,10.069-7.684,10.613,10.613,0,0,1,0,21.227Zm11.341-18.3a13.793,13.793,0,0,0-2.379-2.661l7.811-4.4Z" transform="translate(-502.834 -41.389)" fill="#005c9e"/>
      </g>
    </g>
  </g>
</svg>
