<svg xmlns="http://www.w3.org/2000/svg" width="150" height="120" viewBox="0 0 150 120">
  <g id="Group_383" data-name="Group 383" transform="translate(-452 -2509)">
    <rect id="Rectangle_327" data-name="Rectangle 327" width="150" height="120" transform="translate(452 2509)" fill="#fff"/>
    <g id="Group_380" data-name="Group 380" transform="translate(1090.797 2523.269)">
      <path id="Path_896" data-name="Path 896" d="M-534.461,12.731h-57.671A4.67,4.67,0,0,0-596.8,17.4V75.067a4.67,4.67,0,0,0,4.665,4.665h57.671a4.67,4.67,0,0,0,4.665-4.665V17.4A4.671,4.671,0,0,0-534.461,12.731Zm2.12,62.336a2.123,2.123,0,0,1-2.12,2.12h-57.671a2.122,2.122,0,0,1-2.12-2.12V17.4a2.123,2.123,0,0,1,2.12-2.12h57.671a2.123,2.123,0,0,1,2.12,2.12Z" transform="translate(0 0)" fill="#005c9e"/>
      <path id="Path_897" data-name="Path 897" d="M-534.237,46.116h0v0Z" transform="translate(-9.503 -5.071)" fill="#005c9e"/>
      <path id="Path_898" data-name="Path 898" d="M-552.427,37.948a5.212,5.212,0,0,0-2.6-.67h-7.707a1.279,1.279,0,0,0-.9.373,1.28,1.28,0,0,0-.372.9V50.558a1.281,1.281,0,0,0,.372.9,1.283,1.283,0,0,0,.9.373h7.707a4.98,4.98,0,0,0,2.569-.7,6.3,6.3,0,0,0,2.449-2.871,9.265,9.265,0,0,0,.794-3.793,8.527,8.527,0,0,0-1.375-4.8A5.611,5.611,0,0,0-552.427,37.948Zm-.3,9.991a3.306,3.306,0,0,1-1.025,1,2.424,2.424,0,0,1-1.268.345h-6.435V39.822h6.435a2.661,2.661,0,0,1,1.341.338,3.472,3.472,0,0,1,1.391,1.644,6.524,6.524,0,0,1,.536,2.659A6.334,6.334,0,0,1-552.731,47.939Z" transform="translate(-4.981 -3.729)" fill="#005c9e"/>
      <path id="Path_899" data-name="Path 899" d="M-544.774,31.335a15.753,15.753,0,0,0-12.169-5.257H-575.41a1.282,1.282,0,0,0-.9.372,1.283,1.283,0,0,0-.372.9V69.168a1.28,1.28,0,0,0,.372.9,1.279,1.279,0,0,0,.9.373h10.932a1.277,1.277,0,0,0,.9-.373,1.28,1.28,0,0,0,.373-.9V59.627h6.256a17.081,17.081,0,0,0,7.038-1.426,14.994,14.994,0,0,0,6.9-6.307,18.084,18.084,0,0,0,2.325-8.821c0-.094,0-.189,0-.284A17.424,17.424,0,0,0-544.774,31.335Zm1.545,11.709v.009a14.955,14.955,0,0,1-3.487,9.687,12.218,12.218,0,0,1-4.236,3.14,14.527,14.527,0,0,1-6,1.2h-7.528a1.28,1.28,0,0,0-.9.372,1.282,1.282,0,0,0-.372.9V67.9h-8.388V28.622h17.181a13.19,13.19,0,0,1,10.265,4.384,14.9,14.9,0,0,1,3.465,9.783C-543.227,42.874-543.228,42.959-543.229,43.043Z" transform="translate(-3.055 -2.027)" fill="#005c9e"/>
    </g>
  </g>
</svg>
