<svg xmlns="http://www.w3.org/2000/svg" width="150" height="120" viewBox="0 0 150 120">
  <g id="Group_388" data-name="Group 388" transform="translate(-499 -1054)">
    <rect id="Rectangle_321" data-name="Rectangle 321" width="150" height="120" transform="translate(499 1054)" fill="#fff"/>
    <g id="Group_379" data-name="Group 379" transform="translate(506.183 1049.772)">
      <path id="Path_892" data-name="Path 892" d="M131.707,65.513l-1.294-1.222a4.756,4.756,0,0,0-3.311-1.81l-11.266-1.652-5.844-7.31A4,4,0,0,0,106.842,52H95.92l-.457.295-.109.071-.5.323H88.519a9.217,9.217,0,0,0-8.269,5.144l-1.843,3.743-.47.017a3.235,3.235,0,0,0-3.127,3.243v2.326A4.9,4.9,0,0,0,73.8,70.136a6.075,6.075,0,0,0,1.993,4.494L77.634,76.3l.529.479h2.958a6.469,6.469,0,0,0,12.235,0h21.717a6.432,6.432,0,0,0,12.157,0h1.837l.443-.27,3.174-1.932a4.921,4.921,0,0,0,2.349-4.179v-.247A4.885,4.885,0,0,0,131.707,65.513Zm-36-4.742h.1l.6-5.309-.051-1.542.109-.07h10.377a2.174,2.174,0,0,1,1.7.824l5.094,6.372-17.963-.051ZM81.91,58.65a7.369,7.369,0,0,1,6.609-4.111h6.006l.029.849-.4,3.534h-.1l-.183,1.645-.05.445L80.508,61.5Zm5.329,20.642a4.629,4.629,0,1,1,4.629-4.629A4.63,4.63,0,0,1,87.239,79.292Zm33.913-.037a4.592,4.592,0,1,1,4.592-4.592A4.591,4.591,0,0,1,121.152,79.255Zm12.031-8.86a3.045,3.045,0,0,1-1.461,2.6l-3.174,1.932h-.854l.007-.263a6.549,6.549,0,1,0-13.1,0l.006.263H93.781l.007-.263a6.549,6.549,0,0,0-13.1,0l.007.263h-1.82l-1.839-1.667a4.215,4.215,0,0,1-1.385-3.123,3.045,3.045,0,0,1,1.008-2.263V64.836A1.4,1.4,0,0,1,78,63.441l16.4-.6,21.809.061v-.148l10.617,1.557a2.771,2.771,0,0,1,2.157,1.179l1.775,1.677.113.028a3.044,3.044,0,0,1,2.3,2.952Z" fill="#005c9e"/>
      <path id="Path_893" data-name="Path 893" d="M60,71.006V69.727a3.808,3.808,0,0,0-.732-2.253l-.535-.734a9.214,9.214,0,0,0-3.761-4.784l-.041-.022-.043-.021-4.981-2.371-4.383-6.575a10.92,10.92,0,0,0-7.83-4.73l-.1-.009H9.344A8.508,8.508,0,0,0,1.09,54.511l-.035.137L.993,54.9V67.18A3.814,3.814,0,0,0-.176,70.162a8.543,8.543,0,0,0,2.712,6.1l.576.474h3.41a6.2,6.2,0,0,0,11.5,0H41.57A6.2,6.2,0,0,0,53.117,76.6l.22.036.432.069.164.026H54.1a3.819,3.819,0,0,0,2.587-1.006l2.072-1.9A3.838,3.838,0,0,0,60,71.006Zm-22.5-20.7a8.8,8.8,0,0,1,6.283,3.8l3.764,5.645H36.331l-2.565-9.441ZM12.271,78.539a4.121,4.121,0,0,1-4.02-3.229L8.2,74.689c.016-.091.036-.2.057-.307a4.931,4.931,0,0,0,.12-.9c0-1.453,2.075-3.171,3.828-3.171a4.96,4.96,0,0,1,3.853,2.476,4.121,4.121,0,0,1-3.787,5.755Zm35.048,0a4.115,4.115,0,0,1-3.459-6.358,4.763,4.763,0,0,1,3.414-1.873h.046c.11,0,.212.009.318.016.14.011.282.018.419.042l.126.02a4.123,4.123,0,0,1-.864,8.154Zm10.6-7.533a1.752,1.752,0,0,1-.567,1.29l-2.074,1.9a1.746,1.746,0,0,1-1.181.46l-.433-.069c.012-.137.021-.273.021-.413A6.31,6.31,0,0,0,42.1,71.078a5.438,5.438,0,0,0-1.2,3.164c0,.14.01.277.021.413H18.582c.012-.136.021-.273.021-.413a4.873,4.873,0,0,0-.621-2.249A6.2,6.2,0,0,0,6.067,74.415l.013.24H3.858A6.5,6.5,0,0,1,1.9,70.043a1.751,1.751,0,0,1,.585-1.411,1.751,1.751,0,0,0,.587-1.307V55.151l.029-.109a6.432,6.432,0,0,1,6.243-4.734H31.611l3.13,11.521H49.655v-.1l4.338,2.066c1.964,1.047,2.88,3.927,2.88,3.927l.713.979a1.749,1.749,0,0,1,.335,1.03Z" fill="#005c9e"/>
      <path id="Path_894" data-name="Path 894" d="M40.118,64.649H36.06a1.04,1.04,0,0,0,0,2.08h4.058a1.04,1.04,0,1,0,0-2.08Z" fill="#005c9e"/>
      <path id="Path_895" data-name="Path 895" d="M71.578,75.75H62.422V73.658L57.5,76.5l4.922,2.842V77.25h9.156v2.092L76.5,76.5l-4.922-2.842Z" fill="#005c9e"/>
    </g>
  </g>
</svg>
