<svg xmlns="http://www.w3.org/2000/svg" width="150" height="120" viewBox="0 0 150 120">
  <g id="Group_385" data-name="Group 385" transform="translate(-438 -1966)">
    <rect id="Rectangle_325" data-name="Rectangle 325" width="150" height="120" transform="translate(438 1966)" fill="#fff"/>
    <g id="Group_382" data-name="Group 382" transform="translate(13 8)">
      <g id="Group_372" data-name="Group 372" transform="translate(460 1991)">
        <path id="Path_767" data-name="Path 767" d="M113.38,86.841l-2.868-.308a38.456,38.456,0,0,0,.222-4.059,37.613,37.613,0,0,0-75.226,0,38.457,38.457,0,0,0,.222,4.059l-2.87.308a40.98,40.98,0,0,1-.239-4.367,40.5,40.5,0,1,1,80.759,4.367Z" transform="translate(-32.621 -41.975)" fill="#005c9e"/>
        <path id="Path_768" data-name="Path 768" d="M50.119,62.822l10.542,13.7A13.6,13.6,0,1,0,74.5,67.758l-.163-.008c-.317-.022-.633-.048-.955-.048l-.063,0h-.026l-.241.014c-.4.009-.79.029-1.177.072-.238.026-.472.07-.707.108-.251.041-.5.083-.747.137s-.463.115-.695.179q-.39.109-.769.24c-.2.069-.395.138-.591.217-.328.131-.649.277-.965.433l-.263.118L51.971,60.684a1.444,1.444,0,0,0-1.853,2.138ZM62.842,81.313a10.533,10.533,0,0,1,18.59-6.793A10.423,10.423,0,0,1,83.382,78.4h.124a10.538,10.538,0,1,1-20.665,2.91ZM56.725,66.674l7.756,4.366a13.7,13.7,0,0,0-2.362,2.642Z" transform="translate(-32.225 -41.549)" fill="#005c9e"/>
        <path id="Path_769" data-name="Path 769" d="M113.38,86.841l-2.868-.308a38.456,38.456,0,0,0,.222-4.059,37.613,37.613,0,0,0-75.226,0,38.457,38.457,0,0,0,.222,4.059l-2.87.308a40.98,40.98,0,0,1-.239-4.367,40.5,40.5,0,1,1,80.759,4.367Z" transform="translate(-32.621 -41.975)" fill="#005c9e"/>
        <path id="Path_770" data-name="Path 770" d="M50.119,62.822l10.542,13.7A13.6,13.6,0,1,0,74.5,67.758l-.163-.008c-.317-.022-.633-.048-.955-.048l-.063,0h-.026l-.241.014c-.4.009-.79.029-1.177.072-.238.026-.472.07-.707.108-.251.041-.5.083-.747.137s-.463.115-.695.179q-.39.109-.769.24c-.2.069-.395.138-.591.217-.328.131-.649.277-.965.433l-.263.118L51.971,60.684a1.444,1.444,0,0,0-1.853,2.138ZM62.842,81.313a10.533,10.533,0,0,1,18.59-6.793A10.423,10.423,0,0,1,83.382,78.4h.124a10.538,10.538,0,1,1-20.665,2.91ZM56.725,66.674l7.756,4.366a13.7,13.7,0,0,0-2.362,2.642Z" transform="translate(-32.225 -41.549)" fill="#005c9e"/>
        <path id="Path_771" data-name="Path 771" d="M59.84,60.889A25.068,25.068,0,0,1,97.378,82.632h3.069a28.138,28.138,0,0,0-42.136-24.4l1.529,2.66Z" transform="translate(-32.03 -41.687)" fill="#005c9e"/>
      </g>
    </g>
  </g>
</svg>
