<svg xmlns="http://www.w3.org/2000/svg" width="150" height="128.792" viewBox="0 0 150 128.792">
  <g id="Group_384" data-name="Group 384" transform="translate(-424 -2272.708)">
    <rect id="Rectangle_326" data-name="Rectangle 326" width="150" height="120" transform="translate(424 2281)" fill="#fff"/>
    <g id="Group_370" data-name="Group 370" transform="translate(1379.931 2273.405)">
      <path id="Path_692" data-name="Path 692" d="M-841.725,130.9h-.916c-2.238,0-6.4,0-6.4-5.081,0-3.192.054-6.981.094-9.747.02-1.473.038-2.637.038-3.159,0-.488-.018-.953-.043-1.6-.05-1.271-.123-3.191-.123-7.145,0-4.5,2.32-6.778,6.9-6.778s6.9,2.281,6.9,6.778c0,3.954-.073,5.874-.123,7.145-.024.643-.042,1.108-.042,1.6,0,.522.017,1.686.037,3.159.039,2.767.094,6.555.094,9.747,0,2.15-.772,3.63-2.294,4.4A9.226,9.226,0,0,1-841.725,130.9Zm-.458-.61h.458a8.718,8.718,0,0,0,3.834-.617c1.319-.665,1.959-1.927,1.959-3.856,0-3.188-.053-6.974-.092-9.739-.022-1.476-.038-2.642-.038-3.167,0-.5.017-.968.043-1.619.048-1.266.122-3.179.122-7.122,0-4.151-2.057-6.169-6.287-6.169s-6.288,2.018-6.288,6.169c0,3.943.074,5.856.122,7.122.025.651.044,1.12.044,1.619,0,.526-.017,1.692-.038,3.167-.04,2.765-.094,6.551-.094,9.739,0,4.127,2.991,4.472,5.794,4.472Z" transform="translate(-5.828 -7.761)" fill="#005c9e" stroke="#005c9e" stroke-width="1"/>
      <path id="Path_693" data-name="Path 693" d="M-841.746,130.879v-.23h-.917a9.251,9.251,0,0,1-3.941-.612c-1.248-.611-2.222-1.76-2.232-4.24,0-3.189.054-6.977.094-9.745.02-1.473.038-2.636.038-3.162,0-.493-.018-.962-.043-1.605-.05-1.27-.123-3.184-.123-7.136a6.6,6.6,0,0,1,1.663-4.912,6.865,6.865,0,0,1,5-1.636,6.86,6.86,0,0,1,5,1.636,6.6,6.6,0,0,1,1.664,4.912c0,3.952-.074,5.866-.123,7.136-.024.643-.042,1.112-.042,1.605,0,.526.017,1.689.037,3.162.04,2.768.094,6.555.094,9.745-.008,2.1-.734,3.464-2.168,4.195a9.023,9.023,0,0,1-4.005.657v.459a9.411,9.411,0,0,0,4.212-.707c1.611-.807,2.429-2.4,2.421-4.6,0-3.194-.054-6.983-.094-9.751-.02-1.472-.037-2.637-.037-3.155,0-.482.017-.944.042-1.588.049-1.271.123-3.2.123-7.153a7.052,7.052,0,0,0-1.8-5.24,7.316,7.316,0,0,0-5.325-1.768,7.317,7.317,0,0,0-5.326,1.768,7.052,7.052,0,0,0-1.8,5.24c0,3.957.073,5.883.123,7.154.025.643.043,1.1.043,1.587,0,.517-.017,1.683-.038,3.155-.04,2.768-.094,6.557-.094,9.751-.01,2.6,1.1,3.993,2.493,4.653a9.637,9.637,0,0,0,4.14.658h.915Zm-.458-.61v.23h.458a8.931,8.931,0,0,0,3.938-.64,3.472,3.472,0,0,0,1.576-1.556,5.488,5.488,0,0,0,.51-2.506c0-3.189-.053-6.977-.092-9.742-.022-1.476-.038-2.643-.038-3.165,0-.493.018-.96.043-1.611.048-1.267.122-3.186.122-7.13a6.45,6.45,0,0,0-1.626-4.806,6.717,6.717,0,0,0-4.89-1.593,6.718,6.718,0,0,0-4.891,1.593,6.45,6.45,0,0,0-1.626,4.806c0,3.945.073,5.863.122,7.13.025.651.044,1.118.044,1.611,0,.522-.017,1.689-.038,3.165-.04,2.765-.094,6.552-.094,9.742-.008,2.115.791,3.35,1.965,3.985a8.6,8.6,0,0,0,4.059.717h.458v-.459h-.458a8.2,8.2,0,0,1-3.837-.66c-1.023-.57-1.718-1.57-1.727-3.583,0-3.185.054-6.97.094-9.735.02-1.477.038-2.641.038-3.171,0-.5-.019-.979-.044-1.628-.049-1.265-.122-3.173-.122-7.113a6,6,0,0,1,1.489-4.478,6.269,6.269,0,0,1,4.569-1.462,6.268,6.268,0,0,1,4.568,1.462,6,6,0,0,1,1.489,4.478c0,3.94-.074,5.848-.122,7.113-.025.651-.043,1.124-.043,1.628,0,.53.016,1.694.038,3.171.038,2.765.092,6.551.092,9.735a5.038,5.038,0,0,1-.459,2.3,3.012,3.012,0,0,1-1.374,1.353,8.526,8.526,0,0,1-3.731.592h-.458Z" transform="translate(-5.808 -7.741)" fill="#005c9e" stroke="#005c9e" stroke-width="1"/>
      <path id="Path_694" data-name="Path 694" d="M-835.381,111.527h-.609c0-2.622-2.774-4.755-6.185-4.755s-6.185,2.133-6.185,4.755h-.609c0-2.959,3.048-5.364,6.794-5.364S-835.381,108.569-835.381,111.527Z" transform="translate(-5.837 -8.504)" fill="#005c9e" stroke="#005c9e" stroke-width="1"/>
      <path id="Path_695" data-name="Path 695" d="M-835.4,111.507v-.23h-.609v.23h.23a4.507,4.507,0,0,0-1.9-3.543,7.434,7.434,0,0,0-4.512-1.442,7.43,7.43,0,0,0-4.511,1.442,4.505,4.505,0,0,0-1.9,3.543h.23v-.23h-.609v.23h.23a4.631,4.631,0,0,1,1.9-3.611,7.548,7.548,0,0,1,4.66-1.523,7.548,7.548,0,0,1,4.66,1.523,4.628,4.628,0,0,1,1.9,3.611h.23v0h.23a5.092,5.092,0,0,0-2.079-3.972,8.005,8.005,0,0,0-4.944-1.622,8.005,8.005,0,0,0-4.944,1.622,5.093,5.093,0,0,0-2.079,3.972v.23h1.069v-.23a4.047,4.047,0,0,1,1.724-3.178,6.977,6.977,0,0,1,4.231-1.347,6.977,6.977,0,0,1,4.231,1.347,4.047,4.047,0,0,1,1.724,3.178v.23h1.069v-.23Z" transform="translate(-5.817 -8.484)" fill="#005c9e" stroke="#005c9e" stroke-width="1"/>
      <path id="Path_696" data-name="Path 696" d="M-837.125,125.584h-.609v-7.457a2.239,2.239,0,0,0-.506-1.654c-.6-.6-1.786-.585-3.157-.575-.4,0-.818,0-1.216,0-1.372-.011-2.556-.021-3.159.575a2.247,2.247,0,0,0-.505,1.654v7.457h-.609v-7.457a2.8,2.8,0,0,1,.686-2.086c.782-.776,2.083-.764,3.593-.752.394,0,.809,0,1.2,0,1.509-.013,2.81-.024,3.592.752a2.8,2.8,0,0,1,.686,2.086Z" transform="translate(-6.006 -9.213)" fill="#005c9e" stroke="#005c9e" stroke-width="1"/>
      <path id="Path_697" data-name="Path 697" d="M-837.145,125.563v-.23h-.38v-7.227a2.458,2.458,0,0,0-.574-1.817,2.2,2.2,0,0,0-1.2-.547,9.514,9.514,0,0,0-1.59-.1l-.526,0-.607,0-.606,0-.539,0a9.334,9.334,0,0,0-1.582.1,2.211,2.211,0,0,0-1.2.546h0a2.465,2.465,0,0,0-.573,1.817v7.227h-.15v-7.227a2.572,2.572,0,0,1,.618-1.922c.592-.6,1.612-.692,2.885-.688l.544,0,.6,0,.6,0,.554,0c1.268,0,2.283.091,2.874.688a2.568,2.568,0,0,1,.618,1.922v7.457h.23v0h.23v-7.457a3.018,3.018,0,0,0-.754-2.248c-.777-.761-1.925-.818-3.2-.821l-.558,0-.6,0-.6,0-.548,0c-1.277,0-2.429.059-3.209.821a3.02,3.02,0,0,0-.754,2.248v7.686h1.069v-7.686a2.033,2.033,0,0,1,.437-1.491h0a1.765,1.765,0,0,1,.958-.42,8.86,8.86,0,0,1,1.5-.092l.536,0,.609,0,.61,0,.523,0a9.061,9.061,0,0,1,1.51.091,1.762,1.762,0,0,1,.961.421,2.025,2.025,0,0,1,.438,1.49v7.686h1.069v-.23Z" transform="translate(-5.986 -9.193)" fill="#005c9e" stroke="#005c9e" stroke-width="1"/>
      <rect id="Rectangle_302" data-name="Rectangle 302" width="0.61" height="1.544" transform="translate(-841.586 101.501) rotate(-56.957)" fill="#005c9e" stroke="#005c9e" stroke-width="1"/>
      <path id="Path_698" data-name="Path 698" d="M-833.315,111.113l.125-.193-1.1-.717.082-.126.909.591-.207.319.193.125.125-.193-.125.193.193.125.332-.511.125-.192-1.679-1.092-.457.7-.125.192,1.679,1.092.125-.193Z" transform="translate(-6.977 -8.77)" fill="#005c9e" stroke="#005c9e" stroke-width="1"/>
      <rect id="Rectangle_303" data-name="Rectangle 303" width="1.544" height="0.61" transform="translate(-856.091 101.831) rotate(-32.989)" fill="#005c9e" stroke="#005c9e" stroke-width="1"/>
      <path id="Path_699" data-name="Path 699" d="M-850.035,111.113l.193-.125-.207-.319.91-.591.082.126-1.1.717.125.193.193-.125-.193.125.125.193,1.487-.967-.457-.7-.125-.193-1.68,1.092.457.7.125.193.193-.125Z" transform="translate(-5.724 -8.77)" fill="#005c9e" stroke="#005c9e" stroke-width="1"/>
      <path id="Path_700" data-name="Path 700" d="M-842.041,130.949c-4.18,0-5.169-1.453-5.21-1.513l-.062-.1.481-3.176h9.6l.341,3.2-.073.1C-837.013,129.514-838.139,130.949-842.041,130.949Zm-4.633-1.772c.266.266,1.4,1.163,4.633,1.163,3.027,0,4.218-.9,4.512-1.178l-.255-2.393h-8.524Z" transform="translate(-5.972 -10.095)" fill="#005c9e" stroke="#005c9e" stroke-width="1"/>
      <path id="Path_701" data-name="Path 701" d="M-842.062,130.929v-.23a9.434,9.434,0,0,1-4.059-.711,2.431,2.431,0,0,1-.96-.7l-.191.127.193-.124-.016-.026.438-2.9h9.192l.309,2.9-.017.023h0c-.006,0-1.042,1.4-4.888,1.4v.459c3.957,0,5.171-1.469,5.256-1.589l0,0,.069-.09.054-.073-.372-3.492h-10l-.524,3.458.11.171v0c.08.129,1.172,1.623,5.4,1.616Zm-4.633-1.772-.163.163c.315.318,1.52,1.232,4.8,1.23,3.071,0,4.332-.922,4.669-1.24l.084-.078-.29-2.712h-8.928l-.412,2.717.082.083.163-.163.227.035.335-2.213h8.12l.233,2.187.229-.024-.157-.168c-.25.232-1.373,1.115-4.354,1.116-3.2,0-4.255-.881-4.47-1.1l-.163.162.227.035Z" transform="translate(-5.95 -10.075)" fill="#005c9e" stroke="#005c9e" stroke-width="1"/>
      <rect id="Rectangle_304" data-name="Rectangle 304" width="6.521" height="0.609" transform="translate(-843.857 107.764) rotate(-74.286)" fill="#005c9e" stroke="#005c9e" stroke-width="1"/>
      <path id="Path_702" data-name="Path 702" d="M-836.492,116.739l.062-.221-.366-.1,1.642-5.834.144.041-1.7,6.056.221.062.062-.221-.062.221.221.062,1.828-6.5-.807-.227-.221-.062-1.891,6.719.808.227.221.062.062-.221Z" transform="translate(-6.779 -8.81)" fill="#005c9e" stroke="#005c9e" stroke-width="1"/>
      <rect id="Rectangle_305" data-name="Rectangle 305" width="0.609" height="6.723" transform="translate(-854.544 101.647) rotate(-14.761)" fill="#005c9e" stroke="#005c9e" stroke-width="1"/>
      <path id="Path_703" data-name="Path 703" d="M-846.97,116.96l.222-.059-1.654-6.279.144-.038,1.6,6.057-.367.1.059.222.222-.059-.222.059.059.222.589-.155.222-.059-1.83-6.945-.811.214-.222.059,1.83,6.945.222-.059Z" transform="translate(-5.861 -8.786)" fill="#005c9e" stroke="#005c9e" stroke-width="1"/>
      <rect id="Rectangle_306" data-name="Rectangle 306" width="1.764" height="0.609" transform="translate(-854.333 120.359) rotate(-51.222)" fill="#005c9e" stroke="#005c9e" stroke-width="1"/>
      <path id="Path_704" data-name="Path 704" d="M-847.982,131.064l.144-.179-.3-.238.817-1.017.117.094-.961,1.2.179.144.144-.179-.144.179.179.144,1.248-1.555-.654-.525-.179-.144-1.392,1.734.654.525.179.144.144-.179Z" transform="translate(-5.876 -10.324)" fill="#005c9e" stroke="#005c9e" stroke-width="1"/>
      <rect id="Rectangle_307" data-name="Rectangle 307" width="0.61" height="1.987" transform="matrix(0.733, -0.68, 0.68, 0.733, -843.527, 119.3)" fill="#005c9e" stroke="#005c9e" stroke-width="1"/>
      <path id="Path_705" data-name="Path 705" d="M-835.371,131.073l.168-.156-1.2-1.289.11-.1,1.039,1.12-.279.258.156.168.168-.156-.168.156.156.168.447-.415.168-.156-1.664-1.794-.615.571-.168.156,1.664,1.794.168-.156Z" transform="translate(-6.805 -10.316)" fill="#005c9e" stroke="#005c9e" stroke-width="1"/>
      <path id="Path_706" data-name="Path 706" d="M-837.017,100.758h-.61a3.431,3.431,0,0,0-1.22-2.449l.375-.481A4,4,0,0,1-837.017,100.758Z" transform="translate(-6.658 -7.84)" fill="#005c9e" stroke="#005c9e" stroke-width="1"/>
      <path id="Path_707" data-name="Path 707" d="M-837.045,100.73v-.23h-.61v.23h.23a3.656,3.656,0,0,0-1.3-2.624l-.149.175.182.141.374-.481-.181-.142-.142.18a3.784,3.784,0,0,1,1.368,2.75h.23v0h.23a4.217,4.217,0,0,0-1.544-3.11l-.181-.143-.516.663-.135.174.168.142a3.216,3.216,0,0,1,1.139,2.274v.23h1.07v-.23Z" transform="translate(-6.631 -7.811)" fill="#005c9e" stroke="#005c9e" stroke-width="1"/>
      <path id="Path_708" data-name="Path 708" d="M-845.685,100.758h-.609a4,4,0,0,1,1.456-2.93l.374.481A3.431,3.431,0,0,0-845.685,100.758Z" transform="translate(-6.075 -7.84)" fill="#005c9e" stroke="#005c9e" stroke-width="1"/>
      <path id="Path_709" data-name="Path 709" d="M-845.705,100.73v-.23h-.609v.23h.23a3.777,3.777,0,0,1,1.369-2.75l-.142-.18-.181.142.374.481.181-.141-.141-.181a3.648,3.648,0,0,0-1.309,2.63h.23v0h.23a2.855,2.855,0,0,1,.563-1.641,3.759,3.759,0,0,1,.394-.466l.13-.122.047-.04.179-.142-.515-.661-.141-.183-.182.143a4.22,4.22,0,0,0-1.544,3.11v.23h1.069v-.23Z" transform="translate(-6.055 -7.811)" fill="#005c9e" stroke="#005c9e" stroke-width="1"/>
      <path id="Path_710" data-name="Path 710" d="M-837.927,133.417l-.177-.583.088.292-.089-.292c.042-.013,1.053-.339.957-1.209l.605-.067A1.837,1.837,0,0,1-837.927,133.417Z" transform="translate(-6.719 -10.533)" fill="#005c9e" stroke="#005c9e" stroke-width="1"/>
      <path id="Path_711" data-name="Path 711" d="M-837.952,133.394l.22-.066-.176-.583-.44.132.088.292.439-.134-.09-.291-.219.067.068.22a2.1,2.1,0,0,0,.565-.292,1.265,1.265,0,0,0,.56-1.021l-.008-.141-.228.025.025.228.606-.067-.025-.228-.229.025.009.162a1.341,1.341,0,0,1-.439.982,2.074,2.074,0,0,1-.792.471l.067.22.22-.066-.22.066.067.22a2.526,2.526,0,0,0,.978-.581,1.8,1.8,0,0,0,.579-1.312l-.012-.212-.025-.228-.834.092-.228.026.025.228.006.091a.808.808,0,0,1-.373.651,1.682,1.682,0,0,1-.429.223l-.219.068.157.51.44-.134-.088-.291-.44.133.177.583.066.22.221-.067Z" transform="translate(-6.693 -10.511)" fill="#005c9e" stroke="#005c9e" stroke-width="1"/>
      <path id="Path_712" data-name="Path 712" d="M-845.362,133.417a1.838,1.838,0,0,1-1.384-1.86l.606.067c-.1.87.913,1.2.957,1.209Z" transform="translate(-6.038 -10.533)" fill="#005c9e" stroke="#005c9e" stroke-width="1"/>
      <path id="Path_713" data-name="Path 713" d="M-845.383,133.394l.067-.22a2.084,2.084,0,0,1-.793-.471,1.341,1.341,0,0,1-.439-.982l.009-.162-.228-.025-.026.228.606.067.026-.228-.228-.026-.008.141a1.265,1.265,0,0,0,.56,1.021,2.1,2.1,0,0,0,.564.292l.069-.22-.22-.067-.178.583.22.067.067-.22-.067.22.22.067.178-.583.067-.218-.218-.068a1.667,1.667,0,0,1-.429-.223.806.806,0,0,1-.373-.651l.006-.09.025-.229-.834-.093-.228-.025-.026.228-.012.212a1.8,1.8,0,0,0,.58,1.312,2.52,2.52,0,0,0,.978.581l.22.067.067-.22Z" transform="translate(-6.018 -10.511)" fill="#005c9e" stroke="#005c9e" stroke-width="1"/>
      <path id="Path_714" data-name="Path 714" d="M-859.638,100.344V110.92a.689.689,0,0,0,.689.69.689.689,0,0,0,.689-.69V100.344a.69.69,0,0,0-.689-.69A.69.69,0,0,0-859.638,100.344Zm0-21.153V89.767a.69.69,0,0,0,.689.69.69.69,0,0,0,.689-.69V79.191a.69.69,0,0,0-.689-.69A.69.69,0,0,0-859.638,79.191Zm0-21.152V68.615a.69.69,0,0,0,.689.69.69.69,0,0,0,.689-.69V58.04a.69.69,0,0,0-.689-.69A.69.69,0,0,0-859.638,58.04Zm0-21.153V47.464a.69.69,0,0,0,.689.69.69.69,0,0,0,.689-.69V36.887a.69.69,0,0,0-.689-.69A.69.69,0,0,0-859.638,36.887Zm0-21.153V26.311a.69.69,0,0,0,.689.69.69.69,0,0,0,.689-.69V15.734a.69.69,0,0,0-.689-.69A.69.69,0,0,0-859.638,15.734Z" transform="translate(-5.008 -1.237)" fill="#005c9e" stroke="#005c9e" stroke-width="1"/>
      <path id="Path_715" data-name="Path 715" d="M-859.638,130.647v5.513a.689.689,0,0,0,.689.689.689.689,0,0,0,.689-.689v-5.513a.689.689,0,0,0-.689-.689.689.689,0,0,0-.689.689" transform="translate(-5.008 -10.403)" fill="#005c9e" stroke="#005c9e" stroke-width="1"/>
      <path id="Path_716" data-name="Path 716" d="M-860.75.493c0,18.579,7.665,33.321,15.261,45.829,3.8,6.255,7.585,11.96,10.4,17.3s4.661,10.306,4.658,15.069V126.9a.69.69,0,0,0,.689.69.69.69,0,0,0,.689-.69V78.692c0-5.125-1.954-10.284-4.818-15.713-4.3-8.144-10.689-16.939-15.989-27.12s-9.515-21.725-9.516-35.365a.69.69,0,0,0-.689-.69.69.69,0,0,0-.689.69Z" transform="translate(-4.881 0)" fill="#005c9e" stroke="#005c9e" stroke-width="1"/>
      <path id="Path_717" data-name="Path 717" d="M-890.594,1.742V7.255a.689.689,0,0,0,.689.689.689.689,0,0,0,.689-.689V1.742a.689.689,0,0,0-.689-.689.689.689,0,0,0-.689.689" transform="translate(-2.532 -0.101)" fill="#005c9e" stroke="#005c9e" stroke-width="1"/>
      <path id="Path_718" data-name="Path 718" d="M-890.594,101.186V111.47a.69.69,0,0,0,.689.69.69.69,0,0,0,.689-.69V101.186a.69.69,0,0,0-.689-.69A.69.69,0,0,0-890.594,101.186Zm0-41.136V70.335a.69.69,0,0,0,.689.69.69.69,0,0,0,.689-.69V60.051a.69.69,0,0,0-.689-.69A.69.69,0,0,0-890.594,60.051Zm0-20.567V49.768a.69.69,0,0,0,.689.69.69.69,0,0,0,.689-.69V39.484a.69.69,0,0,0-.689-.69A.69.69,0,0,0-890.594,39.484Zm0-20.567V29.2a.69.69,0,0,0,.689.69.69.69,0,0,0,.689-.69V18.916a.69.69,0,0,0-.689-.69A.69.69,0,0,0-890.594,18.916Z" transform="translate(-2.532 -1.495)" fill="#005c9e" stroke="#005c9e" stroke-width="1"/>
      <path id="Path_719" data-name="Path 719" d="M-890.594,130.647v5.513a.689.689,0,0,0,.689.689.689.689,0,0,0,.689-.689v-5.513a.689.689,0,0,0-.689-.689.689.689,0,0,0-.689.689" transform="translate(-2.532 -10.403)" fill="#005c9e" stroke="#005c9e" stroke-width="1"/>
      <path id="Path_720" data-name="Path 720" d="M-922.25,2.167V7.68a.689.689,0,0,0,.689.689.689.689,0,0,0,.689-.689V2.167a.689.689,0,0,0-.689-.689.689.689,0,0,0-.689.689" transform="translate(0 -0.136)" fill="#005c9e" stroke="#005c9e" stroke-width="1"/>
      <path id="Path_721" data-name="Path 721" d="M-922.25,101.289v10.248a.69.69,0,0,0,.689.69.69.69,0,0,0,.689-.69V101.289a.69.69,0,0,0-.689-.69A.69.69,0,0,0-922.25,101.289Zm0-20.5V91.041a.69.69,0,0,0,.689.69.69.69,0,0,0,.689-.69V80.793a.69.69,0,0,0-.689-.69A.69.69,0,0,0-922.25,80.793Zm0-20.5V70.544a.69.69,0,0,0,.689.69.69.69,0,0,0,.689-.69V60.3a.69.69,0,0,0-.689-.69A.69.69,0,0,0-922.25,60.3Zm0-20.5V50.048a.69.69,0,0,0,.689.69.69.69,0,0,0,.689-.69V39.8a.69.69,0,0,0-.689-.69A.69.69,0,0,0-922.25,39.8Zm0-20.5V29.551a.69.69,0,0,0,.689.69.69.69,0,0,0,.689-.69V19.3a.69.69,0,0,0-.689-.69A.69.69,0,0,0-922.25,19.3Z" transform="translate(0 -1.526)" fill="#005c9e" stroke="#005c9e" stroke-width="1"/>
      <path id="Path_722" data-name="Path 722" d="M-922.25,130.647v5.513a.689.689,0,0,0,.689.689.689.689,0,0,0,.689-.689v-5.513a.689.689,0,0,0-.689-.689.689.689,0,0,0-.689.689" transform="translate(0 -10.403)" fill="#005c9e" stroke="#005c9e" stroke-width="1"/>
      <path id="Path_723" data-name="Path 723" d="M-903.135,33.2h0c-.22,0-.428,0-.622-.006-.329,0-.583,0-.911,0-.193,0-.4.006-.622.006-1.554,0-5.682,0-5.682-4.337,0-2.9.274-6.45.473-9.043.106-1.375.188-2.46.188-2.924a8.456,8.456,0,0,0-.167-1.41,34.474,34.474,0,0,1-.494-6.508c0-4.017,2.338-6.141,6.76-6.141s6.758,2.123,6.758,6.141a34.489,34.489,0,0,1-.494,6.508,8.535,8.535,0,0,0-.166,1.41c0,.464.082,1.549.188,2.924.2,2.593.472,6.144.472,9.043a3.779,3.779,0,0,1-2.043,3.688A8.258,8.258,0,0,1-903.135,33.2Zm-1.077-.561c.141,0,.3,0,.463,0,.191,0,.4.006.614.006a7.761,7.761,0,0,0,3.39-.59,3.228,3.228,0,0,0,1.74-3.2c0-2.878-.273-6.417-.471-9-.107-1.387-.19-2.48-.19-2.966a9.036,9.036,0,0,1,.175-1.5,33.925,33.925,0,0,0,.487-6.415c0-3.709-2.089-5.589-6.207-5.589s-6.208,1.88-6.208,5.589a33.956,33.956,0,0,0,.486,6.415,8.943,8.943,0,0,1,.176,1.5c0,.486-.084,1.58-.19,2.966-.2,2.584-.471,6.123-.471,9,0,3.356,2.741,3.786,5.13,3.786.217,0,.423,0,.614-.006C-904.509,32.64-904.354,32.638-904.212,32.638Z" transform="translate(-0.915 -0.246)" fill="#005c9e" stroke="#005c9e" stroke-width="1"/>
      <path id="Path_724" data-name="Path 724" d="M-903.155,33.179v-.23c-.218,0-.425,0-.619-.006-.164,0-.311,0-.458,0s-.293,0-.458,0c-.193,0-.4.006-.618.006a8.378,8.378,0,0,1-3.331-.522,3.521,3.521,0,0,1-2.122-3.585c0-2.886.273-6.434.472-9.026.106-1.376.189-2.456.189-2.941a8.67,8.67,0,0,0-.17-1.449h0a34.189,34.189,0,0,1-.492-6.47,5.667,5.667,0,0,1,1.647-4.407,7.064,7.064,0,0,1,4.884-1.5,7.064,7.064,0,0,1,4.883,1.5A5.666,5.666,0,0,1-897.7,8.956a34.215,34.215,0,0,1-.491,6.47h0a8.67,8.67,0,0,0-.17,1.449c0,.485.083,1.565.188,2.941.2,2.592.472,6.14.472,9.026a3.547,3.547,0,0,1-1.917,3.483,8.037,8.037,0,0,1-3.535.624v.459a8.456,8.456,0,0,0,3.742-.673,4.013,4.013,0,0,0,2.169-3.894c0-2.913-.274-6.468-.473-9.061-.106-1.373-.188-2.463-.188-2.906a8.325,8.325,0,0,1,.164-1.372l0-.023,0,.023a34.757,34.757,0,0,0,.5-6.547,6.12,6.12,0,0,0-1.8-4.747,7.508,7.508,0,0,0-5.192-1.624,7.509,7.509,0,0,0-5.192,1.624,6.121,6.121,0,0,0-1.8,4.747,34.659,34.659,0,0,0,.5,6.547h0a8.317,8.317,0,0,1,.164,1.372c0,.443-.082,1.534-.187,2.906-.2,2.593-.474,6.148-.474,9.061a3.988,3.988,0,0,0,2.4,4.005,8.777,8.777,0,0,0,3.516.561c.222,0,.432,0,.625-.006.164,0,.308,0,.452,0s.289,0,.452,0c.194,0,.4.006.626.006Zm-1.077-.561v.23c.138,0,.292,0,.459,0,.191,0,.4.006.617.006a7.972,7.972,0,0,0,3.493-.615,3.461,3.461,0,0,0,1.866-3.4c0-2.892-.274-6.435-.472-9.019-.107-1.385-.19-2.484-.189-2.949a8.8,8.8,0,0,1,.172-1.465h0a34.224,34.224,0,0,0,.49-6.454A5.58,5.58,0,0,0-899.431,4.6a6.977,6.977,0,0,0-4.8-1.462,6.978,6.978,0,0,0-4.8,1.462,5.58,5.58,0,0,0-1.636,4.356,34.129,34.129,0,0,0,.49,6.454h0a8.812,8.812,0,0,1,.172,1.465c0,.465-.083,1.564-.19,2.949-.2,2.584-.471,6.127-.471,9.019a3.473,3.473,0,0,0,1.791,3.354,7.73,7.73,0,0,0,3.569.662c.219,0,.425,0,.617-.006.167,0,.322,0,.461,0v-.459c-.144,0-.3,0-.468,0-.19,0-.4.006-.61.006a7.314,7.314,0,0,1-3.352-.607,3,3,0,0,1-1.548-2.949c0-2.864.272-6.4.47-8.984.107-1.388.19-2.477.191-2.984a9.252,9.252,0,0,0-.178-1.541h0a33.674,33.674,0,0,1-.483-6.378,5.125,5.125,0,0,1,1.483-4.015,6.537,6.537,0,0,1,4.5-1.344,6.533,6.533,0,0,1,4.493,1.344,5.122,5.122,0,0,1,1.484,4.015,33.769,33.769,0,0,1-.483,6.378h0a9.158,9.158,0,0,0-.178,1.541c0,.506.085,1.6.191,2.984.2,2.583.47,6.12.47,8.984a3,3,0,0,1-1.614,2.991,7.559,7.559,0,0,1-3.287.565c-.216,0-.42,0-.611-.006-.166,0-.323,0-.466,0Z" transform="translate(-0.895 -0.226)" fill="#005c9e" stroke="#005c9e" stroke-width="1"/>
      <path id="Path_725" data-name="Path 725" d="M-898,16.826h-.552c0-2.375-2.513-4.308-5.6-4.308s-5.6,1.932-5.6,4.308h-.551c0-2.679,2.759-4.859,6.155-4.859S-898,14.147-898,16.826Z" transform="translate(-0.969 -0.987)" fill="#005c9e" stroke="#005c9e" stroke-width="1"/>
      <path id="Path_726" data-name="Path 726" d="M-898.025,16.806v-.23h-.552v.23h.23a4.1,4.1,0,0,0-1.732-3.226,6.753,6.753,0,0,0-4.1-1.311,6.753,6.753,0,0,0-4.1,1.311,4.1,4.1,0,0,0-1.733,3.226h.23v-.23h-.551v.23h.23a4.172,4.172,0,0,1,1.716-3.254,6.809,6.809,0,0,1,4.208-1.376,6.805,6.805,0,0,1,4.207,1.376,4.17,4.17,0,0,1,1.717,3.254h.23v0h.23a4.632,4.632,0,0,0-1.892-3.615,7.266,7.266,0,0,0-4.491-1.474,7.272,7.272,0,0,0-4.493,1.474,4.631,4.631,0,0,0-1.891,3.615v.23h1.011v-.23A3.645,3.645,0,0,1-908,13.943a6.3,6.3,0,0,1,3.821-1.216,6.3,6.3,0,0,1,3.819,1.216,3.642,3.642,0,0,1,1.553,2.862v.23h1.012v-.23Z" transform="translate(-0.948 -0.967)" fill="#005c9e" stroke="#005c9e" stroke-width="1"/>
      <path id="Path_727" data-name="Path 727" d="M-900.911,31.576h-6.254a1.656,1.656,0,0,1-1.655-1.655V18.61a1.656,1.656,0,0,1,1.655-1.655h6.254a1.657,1.657,0,0,1,1.656,1.655V29.921A1.657,1.657,0,0,1-900.911,31.576Zm-6.254-14.07a1.1,1.1,0,0,0-1.1,1.1V29.921a1.1,1.1,0,0,0,1.1,1.1h6.254a1.105,1.105,0,0,0,1.1-1.1V18.61a1.105,1.105,0,0,0-1.1-1.1Z" transform="translate(-1.09 -1.392)" fill="#005c9e" stroke="#005c9e" stroke-width="1"/>
      <path id="Path_728" data-name="Path 728" d="M-900.932,31.556v-.23h-6.254a1.428,1.428,0,0,1-1.425-1.425V18.59a1.428,1.428,0,0,1,1.425-1.425h6.254a1.429,1.429,0,0,1,1.426,1.425V29.9a1.429,1.429,0,0,1-1.426,1.425v.459a1.886,1.886,0,0,0,1.885-1.885V18.59a1.886,1.886,0,0,0-1.885-1.885h-6.254a1.885,1.885,0,0,0-1.885,1.885V29.9a1.885,1.885,0,0,0,1.885,1.885h6.254Zm-6.254-14.07v-.23a1.336,1.336,0,0,0-1.333,1.333V29.9a1.336,1.336,0,0,0,1.333,1.333h6.254A1.334,1.334,0,0,0-899.6,29.9V18.59a1.334,1.334,0,0,0-1.333-1.333h-6.254v.459h6.254a.876.876,0,0,1,.874.874V29.9a.877.877,0,0,1-.874.874h-6.254a.878.878,0,0,1-.874-.874V18.59a.877.877,0,0,1,.874-.874Z" transform="translate(-1.069 -1.371)" fill="#005c9e" stroke="#005c9e" stroke-width="1"/>
      <rect id="Rectangle_308" data-name="Rectangle 308" width="2.421" height="0.552" transform="matrix(0.532, -0.847, 0.847, 0.532, -900.992, 16.42)" fill="#005c9e" stroke="#005c9e" stroke-width="1"/>
      <path id="Path_729" data-name="Path 729" d="M-898.7,17.973l.122-.195-.273-.171,1.042-1.662.078.049-1.164,1.856.195.122.122-.195-.122.195.195.122,1.408-2.245-.662-.415-.195-.122-1.53,2.44.662.416.195.122.122-.195Z" transform="translate(-1.82 -1.258)" fill="#005c9e" stroke="#005c9e" stroke-width="1"/>
      <rect id="Rectangle_309" data-name="Rectangle 309" width="0.552" height="2.421" transform="translate(-910.99 14.663) rotate(-32.088)" fill="#005c9e" stroke="#005c9e" stroke-width="1"/>
      <path id="Path_730" data-name="Path 730" d="M-908.738,17.973l.195-.122-1.164-1.856.078-.049,1.042,1.662-.273.171.122.195.195-.122-.195.122.122.195.467-.293.195-.122-1.53-2.44-.662.416-.195.122,1.53,2.44.195-.122Z" transform="translate(-0.966 -1.258)" fill="#005c9e" stroke="#005c9e" stroke-width="1"/>
      <rect id="Rectangle_310" data-name="Rectangle 310" width="2.385" height="0.552" transform="translate(-910.594 31.512) rotate(-53.932)" fill="#005c9e" stroke="#005c9e" stroke-width="1"/>
      <path id="Path_731" data-name="Path 731" d="M-909.147,34.4l.135-.186-.26-.19,1.133-1.557.074.054-1.268,1.743.186.135.135-.186-.135.186.186.135,1.539-2.115-.632-.46-.186-.135-1.674,2.3.631.46.186.135.135-.186Z" transform="translate(-1.001 -2.561)" fill="#005c9e" stroke="#005c9e" stroke-width="1"/>
      <rect id="Rectangle_311" data-name="Rectangle 311" width="0.552" height="2.385" transform="translate(-901.485 29.908) rotate(-36.04)" fill="#005c9e" stroke="#005c9e" stroke-width="1"/>
      <path id="Path_732" data-name="Path 732" d="M-898.3,34.4l.186-.135-1.268-1.743.074-.054,1.133,1.557-.26.19.135.186.186-.135-.186.135.135.186.446-.325.186-.135-1.674-2.3-.632.459-.186.135,1.674,2.3.186-.135Z" transform="translate(-1.777 -2.561)" fill="#005c9e" stroke="#005c9e" stroke-width="1"/>
      <rect id="Rectangle_312" data-name="Rectangle 312" width="0.552" height="2.144" transform="matrix(0.442, -0.897, 0.897, 0.442, -899.827, 15.139)" fill="#005c9e" stroke="#005c9e" stroke-width="1"/>
      <path id="Path_733" data-name="Path 733" d="M-895.982,17.37l.1-.206-1.717-.846.04-.083,1.511.744-.142.289.206.1.1-.206-.1.206.206.1.244-.5.1-.206-2.336-1.15-.345.7-.1.206,2.335,1.15.1-.206Z" transform="translate(-1.922 -1.283)" fill="#005c9e" stroke="#005c9e" stroke-width="1"/>
      <rect id="Rectangle_313" data-name="Rectangle 313" width="2.144" height="0.552" transform="translate(-912.567 15.592) rotate(-26.232)" fill="#005c9e" stroke="#005c9e" stroke-width="1"/>
      <path id="Path_734" data-name="Path 734" d="M-911.495,17.37l.206-.1-.143-.289,1.511-.744.041.083-1.717.846.1.206.206-.1-.206.1.1.206,2.129-1.049-.344-.7-.1-.206-2.336,1.15.346.7.1.206.206-.1Z" transform="translate(-0.828 -1.283)" fill="#005c9e" stroke="#005c9e" stroke-width="1"/>
      <path id="Path_735" data-name="Path 735" d="M-897.365,6.419h-.987c-1.169,0-1.78-2.311-1.846-2.576l.536-.133c.224.9.778,2.157,1.31,2.157h.987Z" transform="translate(-1.763 -0.317)" fill="#005c9e" stroke="#005c9e" stroke-width="1"/>
      <path id="Path_736" data-name="Path 736" d="M-897.39,6.394v-.23h-.987a.879.879,0,0,1-.611-.3A5.364,5.364,0,0,1-900,3.763l-.222.056.055.223.536-.133-.055-.223-.223.056a6.631,6.631,0,0,0,.561,1.468,2.668,2.668,0,0,0,.411.583.81.81,0,0,0,.561.279h.757v.323h.23v0h.23V5.612h-1.217a.379.379,0,0,1-.234-.142,4.72,4.72,0,0,1-.854-1.84l-.055-.222-.759.189-.223.056.056.222a7.557,7.557,0,0,0,.527,1.434,3.415,3.415,0,0,0,.607.883,1.331,1.331,0,0,0,.934.432h1.217v-.23Z" transform="translate(-1.739 -0.292)" fill="#005c9e" stroke="#005c9e" stroke-width="1"/>
      <path id="Path_737" data-name="Path 737" d="M-909.129,6.419h-.987V5.867h.987c.531,0,1.086-1.261,1.31-2.157l.536.133C-907.349,4.108-907.961,6.419-909.129,6.419Z" transform="translate(-0.984 -0.317)" fill="#005c9e" stroke="#005c9e" stroke-width="1"/>
      <path id="Path_738" data-name="Path 738" d="M-909.149,6.394v-.23h-.757V6.072h.757a.808.808,0,0,0,.561-.279,5.051,5.051,0,0,0,.972-2.051l-.222-.056-.056.223.536.133.056-.223-.223-.056a7.053,7.053,0,0,1-.492,1.34,2.983,2.983,0,0,1-.521.764.877.877,0,0,1-.61.3v.459a1.33,1.33,0,0,0,.934-.432,5.689,5.689,0,0,0,1.135-2.317l.056-.222-.759-.19-.222-.055-.056.222a6.126,6.126,0,0,1-.518,1.36,2.217,2.217,0,0,1-.335.481.379.379,0,0,1-.233.142h-1.217V6.624h1.217Z" transform="translate(-0.964 -0.292)" fill="#005c9e" stroke="#005c9e" stroke-width="1"/>
      <path id="Path_739" data-name="Path 739" d="M-905.554,35.507a2.091,2.091,0,0,0-.189-.646,3.652,3.652,0,0,0-1.44.042l-.416.507-.426-.349.544-.665.1-.018c.356-.065,1.551-.253,1.973.046a1.7,1.7,0,0,1,.4,1Z" transform="translate(-1.154 -2.756)" fill="#005c9e" stroke="#005c9e" stroke-width="1"/>
      <path id="Path_740" data-name="Path 740" d="M-905.583,35.487l.227-.037a3.557,3.557,0,0,0-.1-.429l-.059-.176-.085-.153-.019-.024-.026-.017a.548.548,0,0,0-.246-.078,2.413,2.413,0,0,0-.288-.015,6.972,6.972,0,0,0-1.074.1l-.085.015-.325.4-.072-.058.346-.423.016,0h0a6.807,6.807,0,0,1,1.123-.114,1.356,1.356,0,0,1,.677.121.688.688,0,0,1,.177.309,3.143,3.143,0,0,1,.128.537l.227-.037-.037-.226-.544.086.036.227.227-.037-.227.037.037.227.544-.087.227-.036-.036-.227a3.677,3.677,0,0,0-.148-.617,1.071,1.071,0,0,0-.345-.53,1.7,1.7,0,0,0-.943-.207,7.188,7.188,0,0,0-1.2.121h0l-.1.018-.083.015-.743.909.6.5.178.145.56-.685-.177-.145.038.227a6.449,6.449,0,0,1,1-.092,2.081,2.081,0,0,1,.231.011l.058.01,0,0,.04-.1-.061.087.02.011.04-.1-.061.087.13-.189-.176.148.076-.064-.084.052.008.012.076-.064-.084.052a1.238,1.238,0,0,1,.068.194,3.029,3.029,0,0,1,.078.353l.037.226.227-.036Z" transform="translate(-1.126 -2.736)" fill="#005c9e" stroke="#005c9e" stroke-width="1"/>
      <path id="Path_741" data-name="Path 741" d="M-902.14,35.507l-.545-.087a1.7,1.7,0,0,1,.4-1c.422-.3,1.617-.111,1.973-.046l.1.018.545.665-.427.349-.415-.507a3.426,3.426,0,0,0-1.456-.029A2.5,2.5,0,0,0-902.14,35.507Z" transform="translate(-1.564 -2.756)" fill="#005c9e" stroke="#005c9e" stroke-width="1"/>
      <path id="Path_742" data-name="Path 742" d="M-902.163,35.487l.037-.227-.545-.086-.037.226.227.037a3.231,3.231,0,0,1,.128-.537.687.687,0,0,1,.178-.309,1.359,1.359,0,0,1,.676-.122,6.9,6.9,0,0,1,1.123.115h0l.017,0,.346.423-.072.058-.27-.329-.054-.067-.085-.015a6.673,6.673,0,0,0-1.045-.095,2.35,2.35,0,0,0-.317.017.579.579,0,0,0-.265.088l-.029.019-.021.028-.071.143a3.693,3.693,0,0,0-.148.593l.227.037.037-.227-.037.227.227.037a3.632,3.632,0,0,1,.083-.374l.043-.135.014-.034v0l-.114-.063.1.079.011-.016-.114-.063.1.079-.182-.14.133.187-.048-.066.033.074.015-.008-.048-.066.033.074a1.226,1.226,0,0,1,.33-.028,6.124,6.124,0,0,1,.969.089l.039-.227-.178.145.415.508.146.177.6-.5.177-.145-.743-.909-.182-.033h0a7.267,7.267,0,0,0-1.2-.122,1.7,1.7,0,0,0-.943.208,1.07,1.07,0,0,0-.345.53,3.589,3.589,0,0,0-.148.617l-.037.227.772.123.226.036.037-.226Z" transform="translate(-1.541 -2.736)" fill="#005c9e" stroke="#005c9e" stroke-width="1"/>
      <path id="Path_743" data-name="Path 743" d="M-890.479,105.319h0c-.22,0-.428,0-.622-.006-.328,0-.583,0-.911,0-.193,0-.4.006-.622.006-1.554,0-5.681,0-5.681-4.338,0-2.9.273-6.45.472-9.043.106-1.376.188-2.46.188-2.924a8.525,8.525,0,0,0-.166-1.41,34.4,34.4,0,0,1-.494-6.508c0-4.017,2.338-6.141,6.758-6.141s6.759,2.123,6.759,6.141a34.459,34.459,0,0,1-.495,6.508,8.537,8.537,0,0,0-.166,1.41c0,.464.083,1.548.188,2.924.2,2.592.472,6.144.472,9.043a3.781,3.781,0,0,1-2.043,3.689A8.255,8.255,0,0,1-890.479,105.319Zm-1.078-.562c.141,0,.3,0,.464.006.191,0,.4,0,.614,0a7.773,7.773,0,0,0,3.39-.589,3.229,3.229,0,0,0,1.74-3.2c0-2.878-.273-6.416-.471-9-.107-1.386-.19-2.48-.19-2.965a8.931,8.931,0,0,1,.176-1.5,33.95,33.95,0,0,0,.486-6.415c0-3.709-2.09-5.589-6.208-5.589s-6.207,1.88-6.207,5.589a34.041,34.041,0,0,0,.486,6.415,8.942,8.942,0,0,1,.175,1.5c0,.485-.084,1.58-.19,2.965-.2,2.585-.471,6.123-.471,9,0,3.357,2.742,3.786,5.13,3.786.217,0,.423,0,.614,0C-891.853,104.759-891.7,104.756-891.557,104.756Z" transform="translate(-1.91 -5.986)" fill="#005c9e" stroke="#005c9e" stroke-width="1"/>
      <path id="Path_744" data-name="Path 744" d="M-890.5,105.3v-.23c-.218,0-.425,0-.617-.006h0c-.165,0-.312,0-.458,0s-.294,0-.458,0h0c-.192,0-.4.006-.618.006a8.364,8.364,0,0,1-3.331-.523,3.519,3.519,0,0,1-2.121-3.585c0-2.885.273-6.434.471-9.025.107-1.377.189-2.456.189-2.941a8.643,8.643,0,0,0-.17-1.449,34.147,34.147,0,0,1-.491-6.47,5.664,5.664,0,0,1,1.646-4.407,7.059,7.059,0,0,1,4.883-1.5,7.06,7.06,0,0,1,4.884,1.5,5.662,5.662,0,0,1,1.646,4.407,34.219,34.219,0,0,1-.491,6.47,8.655,8.655,0,0,0-.17,1.449c0,.485.083,1.564.189,2.941.2,2.591.472,6.14.471,9.025a3.546,3.546,0,0,1-1.917,3.484,8.047,8.047,0,0,1-3.535.624v.459a8.47,8.47,0,0,0,3.742-.674,4.013,4.013,0,0,0,2.169-3.894c0-2.913-.274-6.468-.473-9.061-.106-1.372-.188-2.463-.187-2.905a8.225,8.225,0,0,1,.164-1.373,34.671,34.671,0,0,0,.5-6.546,6.121,6.121,0,0,0-1.8-4.747,7.509,7.509,0,0,0-5.193-1.624,7.508,7.508,0,0,0-5.192,1.624,6.121,6.121,0,0,0-1.8,4.747,34.612,34.612,0,0,0,.5,6.547,8.217,8.217,0,0,1,.164,1.372c0,.443-.082,1.534-.187,2.905-.2,2.593-.473,6.148-.473,9.061a3.989,3.989,0,0,0,2.395,4.006,8.81,8.81,0,0,0,3.516.561c.221,0,.433,0,.627-.006h0l.453,0,.452,0h0c.195,0,.405.006.627.006Zm-1.078-.562v.23c.139,0,.293,0,.46.006.192,0,.4,0,.617,0a7.983,7.983,0,0,0,3.494-.614,3.463,3.463,0,0,0,1.866-3.4c0-2.891-.274-6.434-.472-9.019-.107-1.384-.189-2.483-.189-2.948a8.789,8.789,0,0,1,.172-1.465,34.228,34.228,0,0,0,.49-6.454,5.58,5.58,0,0,0-1.636-4.356,6.983,6.983,0,0,0-4.8-1.462,6.982,6.982,0,0,0-4.8,1.462,5.58,5.58,0,0,0-1.635,4.356,34.243,34.243,0,0,0,.49,6.454,8.789,8.789,0,0,1,.172,1.465c0,.465-.083,1.564-.189,2.948-.2,2.585-.472,6.128-.472,9.019a3.474,3.474,0,0,0,1.791,3.354,7.708,7.708,0,0,0,3.569.662c.22,0,.425,0,.618,0,.167,0,.322-.006.459-.006v-.459c-.143,0-.3,0-.467.006-.19,0-.4,0-.61,0a7.315,7.315,0,0,1-3.352-.606,3.007,3.007,0,0,1-1.548-2.95c0-2.864.271-6.4.471-8.983.106-1.388.19-2.477.191-2.984a9.179,9.179,0,0,0-.178-1.542,33.77,33.77,0,0,1-.483-6.377,5.124,5.124,0,0,1,1.483-4.015,6.536,6.536,0,0,1,4.494-1.344,6.539,6.539,0,0,1,4.5,1.344,5.124,5.124,0,0,1,1.483,4.015,33.766,33.766,0,0,1-.483,6.377,9.179,9.179,0,0,0-.178,1.542c0,.506.085,1.6.191,2.984.2,2.583.471,6.119.471,8.983a3,3,0,0,1-1.614,2.992,7.572,7.572,0,0,1-3.287.564c-.215,0-.42,0-.611,0-.166,0-.323-.006-.467-.006Z" transform="translate(-1.89 -5.966)" fill="#005c9e" stroke="#005c9e" stroke-width="1"/>
      <path id="Path_745" data-name="Path 745" d="M-885.349,88.944h-.551c0-2.374-2.514-4.307-5.6-4.307s-5.6,1.932-5.6,4.307h-.551c0-2.679,2.76-4.859,6.154-4.859S-885.349,86.265-885.349,88.944Z" transform="translate(-1.963 -6.739)" fill="#005c9e" stroke="#005c9e" stroke-width="1"/>
      <path id="Path_746" data-name="Path 746" d="M-885.369,88.924v-.23h-.551v.23h.23a4.1,4.1,0,0,0-1.733-3.226,6.749,6.749,0,0,0-4.1-1.31,6.746,6.746,0,0,0-4.1,1.31,4.1,4.1,0,0,0-1.733,3.226h.23v-.23h-.551v.23h.23a4.172,4.172,0,0,1,1.716-3.254,6.814,6.814,0,0,1,4.207-1.376,6.813,6.813,0,0,1,4.208,1.376,4.17,4.17,0,0,1,1.717,3.254h.23v0h.23a4.634,4.634,0,0,0-1.892-3.615,7.27,7.27,0,0,0-4.492-1.474,7.271,7.271,0,0,0-4.492,1.474,4.633,4.633,0,0,0-1.891,3.615v.23h1.011v-.23a3.645,3.645,0,0,1,1.554-2.862,6.29,6.29,0,0,1,3.819-1.215,6.291,6.291,0,0,1,3.82,1.215,3.645,3.645,0,0,1,1.554,2.862v.23h1.011v-.23Z" transform="translate(-1.943 -6.719)" fill="#005c9e" stroke="#005c9e" stroke-width="1"/>
      <path id="Path_747" data-name="Path 747" d="M-888.255,103.694h-6.253a1.656,1.656,0,0,1-1.656-1.654V90.729a1.657,1.657,0,0,1,1.656-1.656h6.253a1.657,1.657,0,0,1,1.656,1.656V102.04A1.656,1.656,0,0,1-888.255,103.694Zm-6.253-14.069a1.105,1.105,0,0,0-1.1,1.1V102.04a1.1,1.1,0,0,0,1.1,1.1h6.253a1.105,1.105,0,0,0,1.1-1.1V90.729a1.106,1.106,0,0,0-1.1-1.1Z" transform="translate(-2.083 -7.129)" fill="#005c9e" stroke="#005c9e" stroke-width="1"/>
      <path id="Path_748" data-name="Path 748" d="M-888.276,103.674v-.23h-6.253a1.428,1.428,0,0,1-1.426-1.424V90.709a1.429,1.429,0,0,1,1.426-1.426h6.253a1.429,1.429,0,0,1,1.426,1.426V102.02a1.428,1.428,0,0,1-1.426,1.424v.459a1.885,1.885,0,0,0,1.885-1.884V90.709a1.886,1.886,0,0,0-1.885-1.885h-6.253a1.886,1.886,0,0,0-1.885,1.885V102.02a1.885,1.885,0,0,0,1.885,1.884h6.253ZM-894.528,89.6v-.23a1.334,1.334,0,0,0-1.333,1.333V102.02a1.334,1.334,0,0,0,1.333,1.332h6.253a1.335,1.335,0,0,0,1.334-1.332V90.709a1.335,1.335,0,0,0-1.334-1.333h-6.253v.459h6.253a.878.878,0,0,1,.875.874V102.02a.877.877,0,0,1-.875.873h-6.253a.876.876,0,0,1-.874-.873V90.709a.876.876,0,0,1,.874-.874Z" transform="translate(-2.063 -7.109)" fill="#005c9e" stroke="#005c9e" stroke-width="1"/>
      <rect id="Rectangle_314" data-name="Rectangle 314" width="2.421" height="0.552" transform="matrix(0.532, -0.847, 0.847, 0.532, -889.348, 82.789)" fill="#005c9e" stroke="#005c9e" stroke-width="1"/>
      <path id="Path_749" data-name="Path 749" d="M-886.048,90.091l.122-.195-.273-.171,1.042-1.661.078.049-1.164,1.856.195.122.122-.195-.122.195.195.122,1.408-2.246-.662-.414-.195-.122-1.53,2.439.662.416.195.122.122-.195Z" transform="translate(-2.832 -7.008)" fill="#005c9e" stroke="#005c9e" stroke-width="1"/>
      <rect id="Rectangle_315" data-name="Rectangle 315" width="0.552" height="2.421" transform="matrix(0.847, -0.531, 0.531, 0.847, -899.332, 81.032)" fill="#005c9e" stroke="#005c9e" stroke-width="1"/>
      <path id="Path_750" data-name="Path 750" d="M-896.082,90.091l.195-.122-1.164-1.856.078-.049,1.042,1.661-.273.171.122.195.195-.122-.195.122.122.195.467-.293.195-.122-1.53-2.439-.662.414-.195.122,1.53,2.441.195-.122Z" transform="translate(-1.965 -7.008)" fill="#005c9e" stroke="#005c9e" stroke-width="1"/>
      <rect id="Rectangle_316" data-name="Rectangle 316" width="2.385" height="0.551" transform="translate(-898.934 97.863) rotate(-54.007)" fill="#005c9e" stroke="#005c9e" stroke-width="1"/>
      <path id="Path_751" data-name="Path 751" d="M-896.491,106.516l.135-.186-.26-.189,1.133-1.557.075.054-1.268,1.743.186.135.135-.186-.135.186.186.135,1.539-2.114-.631-.46-.186-.135-1.674,2.3.632.459.186.135.135-.186Z" transform="translate(-1.999 -8.329)" fill="#005c9e" stroke="#005c9e" stroke-width="1"/>
      <rect id="Rectangle_317" data-name="Rectangle 317" width="0.551" height="2.385" transform="matrix(0.809, -0.588, 0.588, 0.809, -889.841, 96.258)" fill="#005c9e" stroke="#005c9e" stroke-width="1"/>
      <path id="Path_752" data-name="Path 752" d="M-885.648,106.516l.186-.135-1.268-1.743.075-.054,1.133,1.557-.26.189.135.186.186-.135-.186.135.135.186.446-.324.186-.135-1.674-2.3-.632.46-.186.135,1.674,2.3.186-.135Z" transform="translate(-2.789 -8.329)" fill="#005c9e" stroke="#005c9e" stroke-width="1"/>
      <rect id="Rectangle_318" data-name="Rectangle 318" width="0.552" height="2.144" transform="matrix(0.442, -0.897, 0.897, 0.442, -888.183, 81.507)" fill="#005c9e" stroke="#005c9e" stroke-width="1"/>
      <path id="Path_753" data-name="Path 753" d="M-883.326,89.488l.1-.206-1.717-.845.041-.083,1.511.744-.142.288.206.1.1-.206-.1.206.206.1.244-.494.1-.206-2.336-1.151-.345.7-.1.206,2.335,1.149.1-.206Z" transform="translate(-2.934 -7.034)" fill="#005c9e" stroke="#005c9e" stroke-width="1"/>
      <rect id="Rectangle_319" data-name="Rectangle 319" width="2.144" height="0.552" transform="translate(-900.91 81.961) rotate(-26.273)" fill="#005c9e" stroke="#005c9e" stroke-width="1"/>
      <path id="Path_754" data-name="Path 754" d="M-898.839,89.488l.206-.1-.142-.288,1.511-.744.041.083-1.717.845.1.206.206-.1-.206.1.1.206,2.129-1.048-.344-.7-.1-.206-2.336,1.151.346.7.1.206.206-.1Z" transform="translate(-1.828 -7.034)" fill="#005c9e" stroke="#005c9e" stroke-width="1"/>
      <path id="Path_755" data-name="Path 755" d="M-884.709,78.537h-.987c-1.169,0-1.78-2.311-1.846-2.575l.536-.134c.224.9.779,2.157,1.31,2.157h.987Z" transform="translate(-2.776 -6.081)" fill="#005c9e" stroke="#005c9e" stroke-width="1"/>
      <path id="Path_756" data-name="Path 756" d="M-884.734,78.512v-.23h-.987a.873.873,0,0,1-.61-.3,5.36,5.36,0,0,1-1.013-2.1l-.222.056.056.222.536-.133-.056-.223-.222.056a6.589,6.589,0,0,0,.56,1.468,2.648,2.648,0,0,0,.411.583.809.809,0,0,0,.561.28h.757v.322h.23v0h.23v-.781h-1.217a.382.382,0,0,1-.233-.142,4.712,4.712,0,0,1-.854-1.841l-.056-.222-.759.189-.223.056.057.223a7.5,7.5,0,0,0,.526,1.433,3.4,3.4,0,0,0,.608.883,1.33,1.33,0,0,0,.933.432h1.217v-.23Z" transform="translate(-2.751 -6.056)" fill="#005c9e" stroke="#005c9e" stroke-width="1"/>
      <path id="Path_757" data-name="Path 757" d="M-896.473,78.537h-.987v-.551h.987c.531,0,1.086-1.262,1.31-2.157l.536.134C-894.693,76.226-895.3,78.537-896.473,78.537Z" transform="translate(-1.982 -6.081)" fill="#005c9e" stroke="#005c9e" stroke-width="1"/>
      <path id="Path_758" data-name="Path 758" d="M-896.493,78.512v-.23h-.757v-.092h.757a.807.807,0,0,0,.561-.28,5.067,5.067,0,0,0,.972-2.051l-.223-.056-.056.223.536.133.056-.222-.222-.056a7.165,7.165,0,0,1-.493,1.339,2.948,2.948,0,0,1-.521.764.873.873,0,0,1-.61.3v.459a1.33,1.33,0,0,0,.934-.432,5.686,5.686,0,0,0,1.135-2.316l.057-.223-.759-.189-.223-.056-.055.222a6.164,6.164,0,0,1-.519,1.361,2.209,2.209,0,0,1-.335.481.382.382,0,0,1-.233.142h-1.217v1.011h1.217Z" transform="translate(-1.962 -6.056)" fill="#005c9e" stroke="#005c9e" stroke-width="1"/>
      <path id="Path_759" data-name="Path 759" d="M-892.9,107.625a2.1,2.1,0,0,0-.189-.646,3.669,3.669,0,0,0-1.44.042l-.415.508-.427-.35.545-.665.1-.018c.357-.064,1.552-.253,1.974.047a1.69,1.69,0,0,1,.4,1Z" transform="translate(-2.15 -8.526)" fill="#005c9e" stroke="#005c9e" stroke-width="1"/>
      <path id="Path_760" data-name="Path 760" d="M-892.927,107.6l.227-.036a3.7,3.7,0,0,0-.1-.43l-.06-.175-.084-.153-.019-.024-.026-.017a.55.55,0,0,0-.245-.079,2.433,2.433,0,0,0-.289-.015,7.1,7.1,0,0,0-1.074.1l-.085.015-.324.4-.072-.059.345-.423.018,0h0a6.794,6.794,0,0,1,1.122-.114,1.342,1.342,0,0,1,.677.122.674.674,0,0,1,.177.309,3.144,3.144,0,0,1,.128.536l.227-.036-.036-.227-.545.086.036.227.227-.036-.227.036.037.227.545-.087.226-.036-.036-.227a3.593,3.593,0,0,0-.148-.616,1.072,1.072,0,0,0-.346-.531,1.7,1.7,0,0,0-.943-.207,7.288,7.288,0,0,0-1.2.121l-.1.019-.082.016-.743.907.6.5.178.146.56-.686-.177-.145.038.227a6.579,6.579,0,0,1,1-.092,1.849,1.849,0,0,1,.231.012l.058.01h0l.04-.1-.061.087.02.011.04-.1-.061.087.13-.189-.175.149.077-.066-.086.054.009.012.077-.066-.086.054a1.231,1.231,0,0,1,.068.194,3.063,3.063,0,0,1,.078.352l.037.227.227-.037Z" transform="translate(-2.121 -8.505)" fill="#005c9e" stroke="#005c9e" stroke-width="1"/>
      <path id="Path_761" data-name="Path 761" d="M-889.484,107.625l-.544-.086a1.691,1.691,0,0,1,.4-1c.422-.3,1.617-.111,1.974-.047l.1.018.545.665-.427.35-.415-.508a3.41,3.41,0,0,0-1.456-.028A2.538,2.538,0,0,0-889.484,107.625Z" transform="translate(-2.577 -8.526)" fill="#005c9e" stroke="#005c9e" stroke-width="1"/>
      <path id="Path_762" data-name="Path 762" d="M-889.507,107.6l.037-.227-.545-.086-.036.227.227.036a3.231,3.231,0,0,1,.127-.536.694.694,0,0,1,.178-.31,1.355,1.355,0,0,1,.677-.121,6.794,6.794,0,0,1,1.122.114h0l.017,0,.346.423-.072.059-.27-.33-.054-.067-.085-.014a6.65,6.65,0,0,0-1.043-.1,2.515,2.515,0,0,0-.318.017.59.59,0,0,0-.266.088l-.029.02-.022.028-.07.142a3.705,3.705,0,0,0-.146.593l.226.036.037-.227-.037.227.227.037a3.5,3.5,0,0,1,.084-.374l.042-.135.014-.035v0l-.114-.062.1.078.011-.016-.114-.062.1.078-.183-.138.132.187-.046-.064.032.073.014-.008-.046-.064.032.073a1.279,1.279,0,0,1,.333-.029,6.235,6.235,0,0,1,.968.089l.038-.227-.178.145.416.508.145.178.6-.5.178-.145-.743-.907-.182-.035h0a7.276,7.276,0,0,0-1.2-.121,1.7,1.7,0,0,0-.943.207,1.072,1.072,0,0,0-.345.531,3.594,3.594,0,0,0-.148.616l-.037.227.772.123.227.037.036-.227Z" transform="translate(-2.553 -8.505)" fill="#005c9e" stroke="#005c9e" stroke-width="1"/>
      <path id="Path_763" data-name="Path 763" d="M-845.559,70.726h.459V68.042a.994.994,0,0,0-.993-.993h0a1,1,0,0,0-.736.328h0l-4.8,5.338a.99.99,0,0,0-.255.664.989.989,0,0,0,.223.628l4.8,5.872a.992.992,0,0,0,.768.364.994.994,0,0,0,.629-.225l0,0a.99.99,0,0,0,.366-.769V76.592h-.459l-.015.459a9.036,9.036,0,0,1,4.908,1.387,7.132,7.132,0,0,1,2.705,3.8.991.991,0,0,0,.942.678H-837l.1-.007h.02l.02,0a.993.993,0,0,0,.833-.98,12.789,12.789,0,0,0-2.656-8.135,9.372,9.372,0,0,0-6.852-3.518l-.026.459h0l-.026.459a8.45,8.45,0,0,1,6.19,3.181,11.873,11.873,0,0,1,2.45,7.555l-.062.074.074.454-.034-.459-.086.006.034.458v-.459l-.071-.05a8.049,8.049,0,0,0-3.057-4.265,9.943,9.943,0,0,0-5.4-1.546l-.474-.016v3.134l-.026.055h0l-.047.017-.057-.028-4.8-5.872h0l-.017-.047.019-.05,4.8-5.338h0l.057-.026h0l.074.074v3.119l.434.024Z" transform="translate(-5.6 -5.369)" fill="#005c9e" stroke="#005c9e" stroke-width="1"/>
    </g>
  </g>
</svg>
