<svg xmlns="http://www.w3.org/2000/svg" width="60" height="60" viewBox="0 0 60 60">
  <g id="Group_314" data-name="Group 314" transform="translate(-520 -1626)">
    <rect id="Rectangle_279" data-name="Rectangle 279" width="60" height="60" transform="translate(520 1626)" fill="#005c9e"/>
    <g id="thumbnails" transform="translate(532 1638)">
      <path id="Path_643" data-name="Path 643" d="M10.9,6.319H7.136a.817.817,0,0,0-.817.817V10.9a.817.817,0,0,0,.817.817H10.9a.817.817,0,0,0,.817-.817V7.136a.817.817,0,0,0-.816-.817Z" fill="#fff"/>
      <path id="Path_644" data-name="Path 644" d="M19.882,6.319H16.118a.817.817,0,0,0-.817.817V10.9a.817.817,0,0,0,.817.817h3.764A.817.817,0,0,0,20.7,10.9V7.136a.817.817,0,0,0-.817-.817Z" fill="#fff"/>
      <path id="Path_645" data-name="Path 645" d="M29.681,7.136a.817.817,0,0,0-.817-.817H25.1a.817.817,0,0,0-.817.817V10.9a.817.817,0,0,0,.817.817h3.764a.817.817,0,0,0,.817-.817V7.136Z" fill="#fff"/>
      <path id="Path_646" data-name="Path 646" d="M10.9,15.3H7.136a.817.817,0,0,0-.817.817v3.764a.817.817,0,0,0,.817.817H10.9a.817.817,0,0,0,.817-.817V16.119A.817.817,0,0,0,10.9,15.3Z" fill="#fff"/>
      <path id="Path_647" data-name="Path 647" d="M19.882,15.3H16.118a.817.817,0,0,0-.817.817v3.764a.817.817,0,0,0,.817.817h3.764a.817.817,0,0,0,.817-.817V16.119a.817.817,0,0,0-.817-.817Z" fill="#fff"/>
      <path id="Path_648" data-name="Path 648" d="M28.864,15.3H25.1a.817.817,0,0,0-.817.817v3.764a.817.817,0,0,0,.817.817h3.764a.817.817,0,0,0,.817-.817V16.119a.817.817,0,0,0-.816-.817Z" fill="#fff"/>
      <path id="Path_649" data-name="Path 649" d="M10.9,24.283H7.136a.817.817,0,0,0-.817.817v3.763a.817.817,0,0,0,.817.817H10.9a.817.817,0,0,0,.817-.817V25.1a.816.816,0,0,0-.816-.817Z" fill="#fff"/>
      <path id="Path_650" data-name="Path 650" d="M19.882,24.283H16.118a.817.817,0,0,0-.817.817v3.763a.817.817,0,0,0,.817.817h3.764a.817.817,0,0,0,.817-.817V25.1a.817.817,0,0,0-.817-.817Z" fill="#fff"/>
      <path id="Path_651" data-name="Path 651" d="M28.864,24.283H25.1a.817.817,0,0,0-.817.817v3.764a.817.817,0,0,0,.817.817h3.764a.817.817,0,0,0,.817-.817V25.1a.816.816,0,0,0-.816-.817Z" fill="#fff"/>
    </g>
  </g>
</svg>
