<svg xmlns="http://www.w3.org/2000/svg" width="138" height="59.782" viewBox="0 0 138 59.782">
  <g id="Group_4" data-name="Group 4" transform="translate(-156.651 -348.355)">
    <path id="Path_3" data-name="Path 3" d="M374.114,449.021H330.547V434.434h48.071v11.661Z" transform="translate(-85.313 -42.23)" fill="#005baa"/>
    <path id="Path_4" data-name="Path 4" d="M328.047,351.208v56.983h2.547V351.208" transform="translate(-84.086 -1.4)" fill="#005baa"/>
    <path id="Path_5" data-name="Path 5" d="M293.306,402.214H291.96a3.244,3.244,0,0,1-3.231,3.231H162.573a3.245,3.245,0,0,1-3.231-3.231V354.277a3.245,3.245,0,0,1,3.231-3.231H288.729a3.244,3.244,0,0,1,3.231,3.231v47.937h2.691V354.277a5.936,5.936,0,0,0-5.922-5.922H162.573a5.936,5.936,0,0,0-5.922,5.922v47.937a5.936,5.936,0,0,0,5.922,5.922H288.729a5.936,5.936,0,0,0,5.922-5.922Z" fill="#005baa"/>
    <path id="Path_6" data-name="Path 6" d="M378.542,371.443h-29.91v1h3.913l-.79,5.055,3.161.005-.776-5.06h18.894l-.775,5.06,3.16-.005-.79-5.055h3.913Zm-16.629-11.295-3.167-.005-1.191,10.3,4.214.007Zm7.706,10.3-1.191-10.3-3.167.005.144,10.3ZM365.51,377.5l.29,17.338,6.713-.011L370.468,377.5Zm-10.85,17.327,6.714.011.29-17.338h-4.958Z" transform="translate(-94.185 -5.783)" fill="#005baa"/>
    <g id="Group_1" data-name="Group 1" transform="translate(163.921 354.082)">
      <path id="Path_7" data-name="Path 7" d="M170.922,360.246h5.337V367.7l6.355-7.455h6.3l-6.988,7.9,7.538,11h-6.381l-4.87-7.153-1.953,2.146v5.007h-5.337Z" transform="translate(-170.922 -359.916)" fill="#005baa"/>
      <path id="Path_8" data-name="Path 8" d="M214.786,378.362a8.029,8.029,0,0,1-3.191-3.1,8.87,8.87,0,0,1-1.142-4.512V360.246h5.337V370.48a4.346,4.346,0,0,0,1.032,2.985,3.537,3.537,0,0,0,5.255,0,4.347,4.347,0,0,0,1.032-2.985V360.246h5.336v10.509a8.87,8.87,0,0,1-1.142,4.512,8.036,8.036,0,0,1-3.191,3.1,10.316,10.316,0,0,1-9.326,0Z" transform="translate(-190.316 -359.916)" fill="#005baa"/>
      <path id="Path_9" data-name="Path 9" d="M262.548,379.146l-3.989-5.7h-1.293v5.7h-5.337v-18.9h9.051a8.139,8.139,0,0,1,3.741.839,6.3,6.3,0,0,1,2.573,2.339,6.412,6.412,0,0,1,.921,3.425,6.338,6.338,0,0,1-1.072,3.645,6.409,6.409,0,0,1-2.944,2.352l4.43,6.3Zm-5.282-10.536h3.274a2.409,2.409,0,0,0,1.554-.5,1.6,1.6,0,0,0,0-2.531,2.412,2.412,0,0,0-1.554-.5h-3.274Z" transform="translate(-210.664 -359.916)" fill="#005baa"/>
      <path id="Path_10" data-name="Path 10" d="M290.862,378.346a12,12,0,0,1-4.1-2.379l2.971-3.549a9.949,9.949,0,0,0,6.245,2.311,3.251,3.251,0,0,0,1.651-.344,1.08,1.08,0,0,0,.577-.977.9.9,0,0,0-.26-.688,2.192,2.192,0,0,0-.867-.426q-.606-.178-2.146-.536A25.657,25.657,0,0,1,291,370.588a5.839,5.839,0,0,1-2.421-1.76,4.693,4.693,0,0,1-.908-3.013,5.825,5.825,0,0,1,.922-3.274,6.022,6.022,0,0,1,2.613-2.173,9.385,9.385,0,0,1,3.921-.77,12.263,12.263,0,0,1,7.923,2.559l-2.668,3.769a10.316,10.316,0,0,0-2.7-1.417,8.3,8.3,0,0,0-2.7-.481,2.5,2.5,0,0,0-1.431.344,1.047,1.047,0,0,0-.494.894,1.09,1.09,0,0,0,.275.784,2.418,2.418,0,0,0,.963.523,19.991,19.991,0,0,0,2.119.536,23.562,23.562,0,0,1,3.948,1.156A5.58,5.58,0,0,1,302.733,370a4.545,4.545,0,0,1,.839,2.834,5.615,5.615,0,0,1-2.1,4.649,8.859,8.859,0,0,1-5.681,1.679A14.908,14.908,0,0,1,290.862,378.346Z" transform="translate(-227.753 -359.598)" fill="#005baa"/>
    </g>
    <g id="Group_2" data-name="Group 2" transform="translate(163.494 376.924)">
      <path id="Path_11" data-name="Path 11" d="M172.4,419.127a5.935,5.935,0,0,1-2.311-1.805l2.752-2.687a2.6,2.6,0,0,0,.881.947,2.078,2.078,0,0,0,1.145.374,1.753,1.753,0,0,0,1.278-.5,1.694,1.694,0,0,0,.506-1.266v-9.755h4.272v10.2a5.175,5.175,0,0,1-.7,2.687,4.89,4.89,0,0,1-1.949,1.849,5.933,5.933,0,0,1-2.829.661A7.077,7.077,0,0,1,172.4,419.127Z" transform="translate(-170.084 -404.439)" fill="#005baa"/>
      <path id="Path_12" data-name="Path 12" d="M205.7,419.567l-.77-2.026h-5.264l-.771,2.026h-4.823l5.813-15.128h4.823l5.813,15.128Zm-4.823-5.175h2.841l-1.409-3.678Z" transform="translate(-181.853 -404.439)" fill="#005baa"/>
      <path id="Path_13" data-name="Path 13" d="M228.441,416.374l7.178-8.126h-7v-3.809h12.86v3.193l-7.135,8.126h7.244v3.81H228.463Z" transform="translate(-198.714 -404.439)" fill="#005baa"/>
      <path id="Path_14" data-name="Path 14" d="M264.424,404.439a10.789,10.789,0,0,1,4.668.969,7.754,7.754,0,0,1,3.2,2.686,7.165,7.165,0,0,1,0,7.806,7.716,7.716,0,0,1-3.2,2.7,10.782,10.782,0,0,1-4.668.969h-5.637V404.439Zm2.719,10.78a3.524,3.524,0,0,0,1.4-1.321,3.649,3.649,0,0,0,.506-1.905,3.588,3.588,0,0,0-.506-1.893,3.544,3.544,0,0,0-1.4-1.31,4.224,4.224,0,0,0-2.015-.474h-2.069v7.377h2.069A4.23,4.23,0,0,0,267.143,415.219Z" transform="translate(-213.601 -404.439)" fill="#005baa"/>
      <path id="Path_15" data-name="Path 15" d="M294.729,414.59l-5.813-10.151H293.8l3.061,6.144,3.237-6.144h4.691L299,414.59v4.977h-4.272Z" transform="translate(-228.383 -404.439)" fill="#005baa"/>
    </g>
    <g id="Group_3" data-name="Group 3" transform="translate(163.976 396.853)">
      <path id="Path_16" data-name="Path 16" d="M171.031,443.74h1.486l2.053,2.82v-2.82h1.486V449h-1.486l-2.053-2.819V449h-1.486Z" transform="translate(-171.031 -443.648)" fill="#005baa"/>
      <path id="Path_17" data-name="Path 17" d="M186.086,449l-.268-.7h-1.831l-.268.7h-1.677l2.023-5.263h1.677L187.764,449Zm-1.678-1.8h.989l-.491-1.28Z" transform="translate(-176.432 -443.648)" fill="#005baa"/>
      <path id="Path_18" data-name="Path 18" d="M201.682,449l-.268-.7h-1.831l-.269.7h-1.677l2.022-5.263h1.677L203.36,449ZM200,447.2h.989l-.49-1.28Z" transform="translate(-184.084 -443.648)" fill="#005baa"/>
      <path id="Path_19" data-name="Path 19" d="M210.95,448.786a2.244,2.244,0,0,1-.888-.862,2.471,2.471,0,0,1-.317-1.257V443.74h1.486v2.85a1.212,1.212,0,0,0,.286.831.985.985,0,0,0,1.464,0,1.208,1.208,0,0,0,.288-.831v-2.85h1.486v2.927a2.471,2.471,0,0,1-.318,1.257,2.244,2.244,0,0,1-.888.862,2.879,2.879,0,0,1-2.6,0Z" transform="translate(-190.023 -443.648)" fill="#005baa"/>
      <path id="Path_20" data-name="Path 20" d="M222.158,445.065H220.6V443.74h4.6v1.326h-1.555V449h-1.486Z" transform="translate(-195.351 -443.648)" fill="#005baa"/>
      <path id="Path_21" data-name="Path 21" d="M231.307,448.635a2.869,2.869,0,0,1-1.048-1,2.541,2.541,0,0,1,0-2.709,2.886,2.886,0,0,1,1.048-1,2.921,2.921,0,0,1,2.851,0,2.89,2.89,0,0,1,1.049,1,2.54,2.54,0,0,1,0,2.709,2.919,2.919,0,0,1-3.9,1Zm2.084-1.164a1.411,1.411,0,0,0,.491-.505,1.35,1.35,0,0,0,.184-.686,1.328,1.328,0,0,0-.184-.682,1.421,1.421,0,0,0-.491-.5,1.251,1.251,0,0,0-1.317,0,1.413,1.413,0,0,0-.491.5,1.319,1.319,0,0,0-.184.682,1.34,1.34,0,0,0,.184.686,1.4,1.4,0,0,0,.491.505,1.248,1.248,0,0,0,1.317,0Z" transform="translate(-199.896 -443.56)" fill="#005baa"/>
      <path id="Path_22" data-name="Path 22" d="M242.846,448.781a3.341,3.341,0,0,1-1.141-.663l.827-.989a2.768,2.768,0,0,0,1.739.644.9.9,0,0,0,.46-.1.3.3,0,0,0,.161-.272.253.253,0,0,0-.073-.191.608.608,0,0,0-.241-.119q-.169-.05-.6-.15a7.143,7.143,0,0,1-1.1-.326,1.625,1.625,0,0,1-.673-.491,1.3,1.3,0,0,1-.253-.838,1.623,1.623,0,0,1,.257-.912,1.673,1.673,0,0,1,.727-.605,2.61,2.61,0,0,1,1.091-.214,3.413,3.413,0,0,1,2.207.713l-.743,1.05a2.878,2.878,0,0,0-.75-.4,2.323,2.323,0,0,0-.751-.134.693.693,0,0,0-.4.1.291.291,0,0,0-.139.249.3.3,0,0,0,.077.219.669.669,0,0,0,.267.145,5.487,5.487,0,0,0,.59.15,6.438,6.438,0,0,1,1.1.322,1.553,1.553,0,0,1,.66.482,1.267,1.267,0,0,1,.233.789,1.562,1.562,0,0,1-.586,1.295,2.467,2.467,0,0,1-1.582.467A4.161,4.161,0,0,1,242.846,448.781Z" transform="translate(-205.703 -443.56)" fill="#005baa"/>
      <path id="Path_23" data-name="Path 23" d="M253.094,445.065h-1.555V443.74h4.6v1.326h-1.555V449h-1.486Z" transform="translate(-210.528 -443.648)" fill="#005baa"/>
      <path id="Path_24" data-name="Path 24" d="M264.815,449l-1.112-1.585h-.36V449h-1.486V443.74h2.521a2.27,2.27,0,0,1,1.042.234,1.752,1.752,0,0,1,.717.651,1.8,1.8,0,0,1-.862,2.624L266.507,449Zm-1.472-2.934h.911a.673.673,0,0,0,.434-.138.447.447,0,0,0,0-.7.676.676,0,0,0-.434-.138h-.911Z" transform="translate(-215.59 -443.648)" fill="#005baa"/>
      <path id="Path_25" data-name="Path 25" d="M275.528,449l-.269-.7h-1.83l-.269.7h-1.678l2.023-5.263h1.678L277.205,449Zm-1.679-1.8h.989l-.491-1.28Z" transform="translate(-220.312 -443.648)" fill="#005baa"/>
      <path id="Path_26" data-name="Path 26" d="M285.821,443.74a3.753,3.753,0,0,1,1.623.337,2.7,2.7,0,0,1,1.115.935,2.489,2.489,0,0,1,0,2.716,2.69,2.69,0,0,1-1.115.939,3.746,3.746,0,0,1-1.623.337h-1.962V443.74Zm.946,3.751a1.237,1.237,0,0,0,.487-.46,1.266,1.266,0,0,0,.176-.663,1.226,1.226,0,0,0-.663-1.115,1.47,1.47,0,0,0-.7-.164h-.72v2.566h.72A1.477,1.477,0,0,0,286.767,447.491Z" transform="translate(-226.384 -443.648)" fill="#005baa"/>
      <path id="Path_27" data-name="Path 27" d="M294.81,447.893l2.5-2.827h-2.437V443.74h4.475v1.111l-2.482,2.827h2.521V449h-4.567Z" transform="translate(-231.757 -443.648)" fill="#005baa"/>
      <path id="Path_28" data-name="Path 28" d="M305.367,443.74h1.486V449h-1.486Z" transform="translate(-236.936 -443.648)" fill="#005baa"/>
      <path id="Path_29" data-name="Path 29" d="M314.507,445.065h-2.751v.59h2.505v1.326h-2.505v.7h2.751V449h-4.238V443.74h4.238Z" transform="translate(-239.341 -443.648)" fill="#005baa"/>
    </g>
    <path id="Path_30" data-name="Path 30" d="M359.993,446h-.656l.325-.926h.007Zm-1.447.868h.466l.2-.514h.91l.193.514h.5l-.881-2.244h-.508Z" transform="translate(-99.049 -47.229)" fill="#fff" fill-rule="evenodd"/>
    <path id="Path_31" data-name="Path 31" d="M365.258,445.778h-.43v.81c0,.212-.068.55-.38.55-.277,0-.28-.273-.28-.476v-.884h-.431v1.045c0,.373.17.649.563.649a.691.691,0,0,0,.543-.263h.007v.225h.408Z" transform="translate(-101.596 -47.795)" fill="#fff" fill-rule="evenodd"/>
    <path id="Path_32" data-name="Path 32" d="M370.8,446.528a.422.422,0,1,1,.833,0c0,.277-.087.573-.418.573S370.8,446.8,370.8,446.528Zm-.45.052a.867.867,0,0,0,1.733,0,.867.867,0,1,0-1.733,0Z" transform="translate(-104.839 -47.758)" fill="#fff" fill-rule="evenodd"/>
    <path id="Path_33" data-name="Path 33" d="M375.579,445.763a2,2,0,0,0-.469-.061c-.338,0-.649.158-.649.514,0,.6.749.377.749.7,0,.161-.173.2-.283.2a.822.822,0,0,1-.392-.109l-.058.354a1.936,1.936,0,0,0,.489.07c.35,0,.694-.154.694-.54,0-.6-.749-.431-.749-.694,0-.142.138-.183.254-.183a.882.882,0,0,1,.353.071Z" transform="translate(-106.856 -47.758)" fill="#fff" fill-rule="evenodd"/>
    <path id="Path_34" data-name="Path 34" d="M380.6,447.4h.431v-.607c0-.238,0-.675.351-.675a.442.442,0,0,1,.193.035v-.433l-.132-.013a.516.516,0,0,0-.46.415v-.376H380.6Z" transform="translate(-109.867 -47.758)" fill="#fff" fill-rule="evenodd"/>
    <path id="Path_35" data-name="Path 35" d="M383.345,446.917c0-.254.286-.286.479-.286h.187a.548.548,0,0,1-.09.341.366.366,0,0,1-.3.148C383.464,447.12,383.345,447.059,383.345,446.917Zm-.058-.72a.866.866,0,0,1,.511-.18c.254,0,.212.09.212.357h-.238a1.311,1.311,0,0,0-.556.1.487.487,0,0,0-.283.473.529.529,0,0,0,.579.492.592.592,0,0,0,.511-.286h.007a2.009,2.009,0,0,0,.019.247h.389c-.009-.128-.025-.244-.028-.369s-.007-.248-.007-.415V446.4c0-.489-.048-.7-.553-.7a1.485,1.485,0,0,0-.576.125Z" transform="translate(-111.013 -47.758)" fill="#fff" fill-rule="evenodd"/>
    <path id="Path_36" data-name="Path 36" d="M391.221,446.917c0-.254.286-.286.479-.286h.187a.548.548,0,0,1-.09.341.366.366,0,0,1-.3.148C391.339,447.12,391.221,447.059,391.221,446.917Zm-.058-.72a.864.864,0,0,1,.511-.18c.254,0,.212.09.212.357h-.238a1.312,1.312,0,0,0-.557.1.486.486,0,0,0-.283.473.528.528,0,0,0,.579.492.593.593,0,0,0,.511-.286h.007a2.015,2.015,0,0,0,.019.247h.389c-.009-.128-.025-.244-.029-.369s-.007-.248-.007-.415V446.4c0-.489-.048-.7-.553-.7a1.485,1.485,0,0,0-.576.125Z" transform="translate(-114.877 -47.758)" fill="#fff" fill-rule="evenodd"/>
    <path id="Path_37" data-name="Path 37" d="M387.148,446.027c0,.228.08.537.363.537s.38-.3.38-.537-.11-.528-.386-.528S387.148,445.805,387.148,446.027Zm.744.657a.618.618,0,0,1-.5.214c-.508,0-.694-.418-.694-.871s.186-.862.694-.862a.588.588,0,0,1,.5.232l.007-.1,0-.37c0-.169.159-.323.432-.323v2.252h-.432Z" transform="translate(-112.86 -47.221)" fill="#fff"/>
    <path id="Path_38" data-name="Path 38" d="M377.737,446.357v-.843h-.283V445.2h.283v-.279c0-.162.147-.311.4-.322h.03v.6h.35v.315h-.35v.772c0,.142.04.223.2.243a.552.552,0,0,0,.2-.015l.007.341a1.122,1.122,0,0,1-.318.039A.489.489,0,0,1,377.737,446.357Z" transform="translate(-108.325 -47.216)" fill="#fff"/>
    <path id="Path_39" data-name="Path 39" d="M367.754,446.325v-.843h-.283v-.315h.283v-.279c0-.162.148-.311.4-.322h.03v.6h.351v.315h-.351v.772c0,.141.04.222.2.242a.554.554,0,0,0,.2-.014l.006.341a1.145,1.145,0,0,1-.318.038A.489.489,0,0,1,367.754,446.325Z" transform="translate(-103.428 -47.2)" fill="#fff"/>
    <path id="Path_40" data-name="Path 40" d="M338.2,452.886h.773l.53-2.384h.008l.538,2.384h.769l.777-2.982h-.581l-.56,2.384h-.008l-.526-2.384h-.811l-.508,2.384h-.008l-.556-2.384h-.628Z" transform="translate(-88.679 -49.819)" fill="#fff" fill-rule="evenodd"/>
    <path id="Path_41" data-name="Path 41" d="M349.576,452.274a.5.5,0,0,1,.508-.518c.32,0,.449.239.466.518Zm1.316.726a1.326,1.326,0,0,1-.688.222.575.575,0,0,1-.628-.555H351.1c0-.769-.231-1.329-1.047-1.329a1.029,1.029,0,0,0-1.021,1.162,1.045,1.045,0,0,0,1.149,1.141,1.52,1.52,0,0,0,.756-.175Z" transform="translate(-94.38 -50.523)" fill="#fff" fill-rule="evenodd"/>
    <path id="Path_42" data-name="Path 42" d="M354.335,452.888h.573v-2.98c-.362,0-.572.2-.572.427Z" transform="translate(-96.983 -49.822)" fill="#fff" fill-rule="evenodd"/>
    <path id="Path_43" data-name="Path 43" d="M357,452.888h.573v-1.068h.008l.735,1.068h.726l-.923-1.218.82-.983h-.675l-.684.88h-.008v-1.66q-.548-.013-.573.427Z" transform="translate(-98.292 -49.821)" fill="#fff" fill-rule="evenodd"/>
    <path id="Path_44" data-name="Path 44" d="M362.3,452.436a.561.561,0,1,1,1.106,0c0,.368-.116.76-.555.76S362.3,452.8,362.3,452.436Zm-.6.068a1.151,1.151,0,0,0,2.3,0,1.151,1.151,0,1,0-2.3,0Z" transform="translate(-100.599 -50.523)" fill="#fff" fill-rule="evenodd"/>
    <path id="Path_45" data-name="Path 45" d="M368.538,451.782c.371,0,.474.406.474.7s-.107.713-.483.713-.5-.4-.5-.713S368.17,451.782,368.538,451.782Zm-1.09,2.7c.33,0,.572-.051.572-.38,0-.063,0-.769,0-.769h.009a.752.752,0,0,0,.644.3c.688,0,.936-.555.936-1.158s-.248-1.145-.923-1.145a.747.747,0,0,0-.684.363h-.009v-.312h-.547Z" transform="translate(-103.416 -50.523)" fill="#fff" fill-rule="evenodd"/>
    <path id="Path_46" data-name="Path 46" d="M373.235,452.436a.561.561,0,1,1,1.107,0c0,.368-.115.76-.556.76S373.235,452.8,373.235,452.436Zm-.6.068a1.151,1.151,0,0,0,2.3,0,1.151,1.151,0,1,0-2.3,0Z" transform="translate(-105.962 -50.523)" fill="#fff" fill-rule="evenodd"/>
    <path id="Path_47" data-name="Path 47" d="M382.257,451.419a2.64,2.64,0,0,0-.623-.081c-.449,0-.863.209-.863.684,0,.794,1,.5,1,.931,0,.213-.231.269-.376.269a.912.912,0,0,1-.259-.036,1.582,1.582,0,0,1-.262-.109l-.048.291-.03.179a2.592,2.592,0,0,0,.65.094c.466,0,.923-.205.923-.718,0-.794-1-.573-1-.923,0-.188.184-.244.338-.244a1.186,1.186,0,0,1,.47.094Z" transform="translate(-109.952 -50.523)" fill="#fff" fill-rule="evenodd"/>
    <path id="Path_48" data-name="Path 48" d="M390.386,452.953c0-.338.38-.38.636-.38h.248a.73.73,0,0,1-.119.452.486.486,0,0,1-.4.2C390.543,453.222,390.386,453.141,390.386,452.953Zm-.077-.957a1.151,1.151,0,0,1,.68-.239c.337,0,.281.12.281.475h-.316a1.749,1.749,0,0,0-.739.128.647.647,0,0,0-.375.628.7.7,0,0,0,.768.654.785.785,0,0,0,.68-.38h.009a2.627,2.627,0,0,0,.025.33h.517c-.012-.171-.034-.325-.038-.492s-.008-.329-.008-.551v-.282c0-.649-.064-.927-.735-.927a1.973,1.973,0,0,0-.765.167Z" transform="translate(-114.401 -50.523)" fill="#fff" fill-rule="evenodd"/>
    <path id="Path_49" data-name="Path 49" d="M385.362,452.888h.573v-1.068h.009l.735,1.068h.726l-.923-1.218.821-.983h-.675l-.684.88h-.009v-1.66q-.548-.013-.573.427Z" transform="translate(-112.205 -49.821)" fill="#fff" fill-rule="evenodd"/>
    <path id="Path_50" data-name="Path 50" d="M378.389,452.888h.572v-2.98c-.362,0-.572.2-.572.427Z" transform="translate(-108.784 -49.822)" fill="#fff" fill-rule="evenodd"/>
    <path id="Path_51" data-name="Path 51" d="M346.662,453.641h.573v-2.2c-.362,0-.573.2-.573.427Z" transform="translate(-93.219 -50.575)" fill="#fff" fill-rule="evenodd"/>
    <path id="Path_52" data-name="Path 52" d="M347.235,449.9h-.573v.56c.362,0,.573-.2.573-.427Z" transform="translate(-93.219 -49.819)" fill="#fff" fill-rule="evenodd"/>
    <path id="Rectangle_2" data-name="Rectangle 2" d="M2.6,0H7.8a2.6,2.6,0,0,1,2.6,2.6V7.8a2.6,2.6,0,0,1-2.6,2.6H2.6A2.6,2.6,0,0,1,0,7.8V2.6A2.6,2.6,0,0,1,2.6,0Z" transform="translate(279.328 395.054)" fill="#fff"/>
    <path id="Path_53" data-name="Path 53" d="M399.3,440.955h4.649a15.4,15.4,0,0,1-2.28,4.023,15.242,15.242,0,0,0-3.263.441v-3.57A.893.893,0,0,1,399.3,440.955Z" transform="translate(-118.603 -45.429)" fill="#0093da"/>
    <path id="Path_54" data-name="Path 54" d="M398.4,452.782v-2.329a13,13,0,0,1,2.672-.2A19.255,19.255,0,0,1,398.4,452.782Z" transform="translate(-118.603 -49.99)" fill="#005baa"/>
    <path id="Path_55" data-name="Path 55" d="M403.375,455.18h-2.34a17.829,17.829,0,0,0,3.249-4.508,10.306,10.306,0,0,1,1.078.269A19.71,19.71,0,0,1,403.375,455.18Z" transform="translate(-119.894 -50.196)" fill="#70b32f"/>
    <path id="Path_56" data-name="Path 56" d="M414.065,454.139v1.022a.894.894,0,0,1-.893.894h-2.123a19.714,19.714,0,0,0,.788-3.6A8.431,8.431,0,0,1,414.065,454.139Z" transform="translate(-124.807 -51.072)" fill="#005baa"/>
    <path id="Path_57" data-name="Path 57" d="M412.475,440.955h1.4a.894.894,0,0,1,.894.894v4.719a9.856,9.856,0,0,0-2.11-.994A21.677,21.677,0,0,0,412.475,440.955Z" transform="translate(-125.506 -45.429)" fill="#0093da"/>
    <path id="Path_58" data-name="Path 58" d="M409.42,440.955h.263a15.437,15.437,0,0,1-.518,4.248c-.3-.06-.625-.111-.961-.149A15.338,15.338,0,0,0,409.42,440.955Z" transform="translate(-123.411 -45.429)" fill="#70b32f"/>
  </g>
</svg>