<svg xmlns="http://www.w3.org/2000/svg" width="138" height="59.782" viewBox="0 0 138 59.782">
  <g id="Group_346" data-name="Group 346" transform="translate(-277 -4403.109)">
    <g id="Group_343" data-name="Group 343">
      <path id="Path_3" data-name="Path 3" d="M374.114,449.021H330.547V434.434h48.071v11.661Z" transform="translate(35.037 4012.525)" fill="#f1f4f5"/>
      <path id="Path_4" data-name="Path 4" d="M328.047,351.208v56.983h2.547V351.208" transform="translate(36.263 4053.355)" fill="#f1f4f5"/>
      <path id="Path_5" data-name="Path 5" d="M293.306,402.214H291.96a3.244,3.244,0,0,1-3.231,3.231H162.573a3.245,3.245,0,0,1-3.231-3.231V354.277a3.245,3.245,0,0,1,3.231-3.231H288.729a3.244,3.244,0,0,1,3.231,3.231v47.937h2.691V354.277a5.936,5.936,0,0,0-5.922-5.922H162.573a5.936,5.936,0,0,0-5.922,5.922v47.937a5.936,5.936,0,0,0,5.922,5.922H288.729a5.936,5.936,0,0,0,5.922-5.922Z" transform="translate(120.349 4054.754)" fill="#f1f4f5"/>
      <path id="Path_6" data-name="Path 6" d="M378.542,371.443h-29.91v1h3.913l-.79,5.055,3.161.005-.776-5.06h18.894l-.775,5.06,3.16-.005-.79-5.055h3.913Zm-16.629-11.295-3.167-.005-1.191,10.3,4.214.007Zm7.706,10.3-1.191-10.3-3.167.005.144,10.3ZM365.51,377.5l.29,17.338,6.713-.011L370.468,377.5Zm-10.85,17.327,6.714.011.29-17.338h-4.958Z" transform="translate(26.164 4048.971)" fill="#f1f4f5"/>
    </g>
    <g id="Group_1" data-name="Group 1" transform="translate(284.27 4408.836)">
      <path id="Path_7" data-name="Path 7" d="M170.922,360.246h5.337V367.7l6.355-7.455h6.3l-6.988,7.9,7.538,11h-6.381l-4.87-7.153-1.953,2.146v5.007h-5.337Z" transform="translate(-170.922 -359.916)" fill="#f1f4f5"/>
      <path id="Path_8" data-name="Path 8" d="M214.786,378.362a8.029,8.029,0,0,1-3.191-3.1,8.87,8.87,0,0,1-1.142-4.512V360.246h5.337V370.48a4.346,4.346,0,0,0,1.032,2.985,3.537,3.537,0,0,0,5.255,0,4.347,4.347,0,0,0,1.032-2.985V360.246h5.336v10.509a8.87,8.87,0,0,1-1.142,4.512,8.036,8.036,0,0,1-3.191,3.1,10.316,10.316,0,0,1-9.326,0Z" transform="translate(-190.316 -359.916)" fill="#f1f4f5"/>
      <path id="Path_9" data-name="Path 9" d="M262.548,379.146l-3.989-5.7h-1.293v5.7h-5.337v-18.9h9.051a8.139,8.139,0,0,1,3.741.839,6.3,6.3,0,0,1,2.573,2.339,6.412,6.412,0,0,1,.921,3.425,6.338,6.338,0,0,1-1.072,3.645,6.409,6.409,0,0,1-2.944,2.352l4.43,6.3Zm-5.282-10.536h3.274a2.409,2.409,0,0,0,1.554-.5,1.6,1.6,0,0,0,0-2.531,2.412,2.412,0,0,0-1.554-.5h-3.274Z" transform="translate(-210.664 -359.916)" fill="#f1f4f5"/>
      <path id="Path_10" data-name="Path 10" d="M290.862,378.346a12,12,0,0,1-4.1-2.379l2.971-3.549a9.949,9.949,0,0,0,6.245,2.311,3.251,3.251,0,0,0,1.651-.344,1.08,1.08,0,0,0,.577-.977.9.9,0,0,0-.26-.688,2.192,2.192,0,0,0-.867-.426q-.606-.178-2.146-.536A25.657,25.657,0,0,1,291,370.588a5.839,5.839,0,0,1-2.421-1.76,4.693,4.693,0,0,1-.908-3.013,5.825,5.825,0,0,1,.922-3.274,6.022,6.022,0,0,1,2.613-2.173,9.385,9.385,0,0,1,3.921-.77,12.263,12.263,0,0,1,7.923,2.559l-2.668,3.769a10.316,10.316,0,0,0-2.7-1.417,8.3,8.3,0,0,0-2.7-.481,2.5,2.5,0,0,0-1.431.344,1.047,1.047,0,0,0-.494.894,1.09,1.09,0,0,0,.275.784,2.418,2.418,0,0,0,.963.523,19.991,19.991,0,0,0,2.119.536,23.562,23.562,0,0,1,3.948,1.156A5.58,5.58,0,0,1,302.733,370a4.545,4.545,0,0,1,.839,2.834,5.615,5.615,0,0,1-2.1,4.649,8.859,8.859,0,0,1-5.681,1.679A14.908,14.908,0,0,1,290.862,378.346Z" transform="translate(-227.753 -359.598)" fill="#f1f4f5"/>
    </g>
    <g id="Group_2" data-name="Group 2" transform="translate(283.843 4431.679)">
      <path id="Path_11" data-name="Path 11" d="M172.4,419.127a5.935,5.935,0,0,1-2.311-1.805l2.752-2.687a2.6,2.6,0,0,0,.881.947,2.078,2.078,0,0,0,1.145.374,1.753,1.753,0,0,0,1.278-.5,1.694,1.694,0,0,0,.506-1.266v-9.755h4.272v10.2a5.175,5.175,0,0,1-.7,2.687,4.89,4.89,0,0,1-1.949,1.849,5.933,5.933,0,0,1-2.829.661A7.077,7.077,0,0,1,172.4,419.127Z" transform="translate(-170.084 -404.439)" fill="#f1f4f5"/>
      <path id="Path_12" data-name="Path 12" d="M205.7,419.567l-.77-2.026h-5.264l-.771,2.026h-4.823l5.813-15.128h4.823l5.813,15.128Zm-4.823-5.175h2.841l-1.409-3.678Z" transform="translate(-181.853 -404.439)" fill="#f1f4f5"/>
      <path id="Path_13" data-name="Path 13" d="M228.441,416.374l7.178-8.126h-7v-3.809h12.86v3.193l-7.135,8.126h7.244v3.81H228.463Z" transform="translate(-198.714 -404.439)" fill="#f1f4f5"/>
      <path id="Path_14" data-name="Path 14" d="M264.424,404.439a10.789,10.789,0,0,1,4.668.969,7.754,7.754,0,0,1,3.2,2.686,7.165,7.165,0,0,1,0,7.806,7.716,7.716,0,0,1-3.2,2.7,10.782,10.782,0,0,1-4.668.969h-5.637V404.439Zm2.719,10.78a3.524,3.524,0,0,0,1.4-1.321,3.649,3.649,0,0,0,.506-1.905,3.588,3.588,0,0,0-.506-1.893,3.544,3.544,0,0,0-1.4-1.31,4.224,4.224,0,0,0-2.015-.474h-2.069v7.377h2.069A4.23,4.23,0,0,0,267.143,415.219Z" transform="translate(-213.601 -404.439)" fill="#f1f4f5"/>
      <path id="Path_15" data-name="Path 15" d="M294.729,414.59l-5.813-10.151H293.8l3.061,6.144,3.237-6.144h4.691L299,414.59v4.977h-4.272Z" transform="translate(-228.383 -404.439)" fill="#f1f4f5"/>
    </g>
    <g id="Group_3" data-name="Group 3" transform="translate(284.325 4451.607)">
      <path id="Path_16" data-name="Path 16" d="M171.031,443.74h1.486l2.053,2.82v-2.82h1.486V449h-1.486l-2.053-2.819V449h-1.486Z" transform="translate(-171.031 -443.648)" fill="#f1f4f5"/>
      <path id="Path_17" data-name="Path 17" d="M186.086,449l-.268-.7h-1.831l-.268.7h-1.677l2.023-5.263h1.677L187.764,449Zm-1.678-1.8h.989l-.491-1.28Z" transform="translate(-176.432 -443.648)" fill="#f1f4f5"/>
      <path id="Path_18" data-name="Path 18" d="M201.682,449l-.268-.7h-1.831l-.269.7h-1.677l2.022-5.263h1.677L203.36,449ZM200,447.2h.989l-.49-1.28Z" transform="translate(-184.084 -443.648)" fill="#f1f4f5"/>
      <path id="Path_19" data-name="Path 19" d="M210.95,448.786a2.244,2.244,0,0,1-.888-.862,2.471,2.471,0,0,1-.317-1.257V443.74h1.486v2.85a1.212,1.212,0,0,0,.286.831.985.985,0,0,0,1.464,0,1.208,1.208,0,0,0,.288-.831v-2.85h1.486v2.927a2.471,2.471,0,0,1-.318,1.257,2.244,2.244,0,0,1-.888.862,2.879,2.879,0,0,1-2.6,0Z" transform="translate(-190.023 -443.648)" fill="#f1f4f5"/>
      <path id="Path_20" data-name="Path 20" d="M222.158,445.065H220.6V443.74h4.6v1.326h-1.555V449h-1.486Z" transform="translate(-195.351 -443.648)" fill="#f1f4f5"/>
      <path id="Path_21" data-name="Path 21" d="M231.307,448.635a2.869,2.869,0,0,1-1.048-1,2.541,2.541,0,0,1,0-2.709,2.886,2.886,0,0,1,1.048-1,2.921,2.921,0,0,1,2.851,0,2.89,2.89,0,0,1,1.049,1,2.54,2.54,0,0,1,0,2.709,2.919,2.919,0,0,1-3.9,1Zm2.084-1.164a1.411,1.411,0,0,0,.491-.505,1.35,1.35,0,0,0,.184-.686,1.328,1.328,0,0,0-.184-.682,1.421,1.421,0,0,0-.491-.5,1.251,1.251,0,0,0-1.317,0,1.413,1.413,0,0,0-.491.5,1.319,1.319,0,0,0-.184.682,1.34,1.34,0,0,0,.184.686,1.4,1.4,0,0,0,.491.505,1.248,1.248,0,0,0,1.317,0Z" transform="translate(-199.896 -443.56)" fill="#f1f4f5"/>
      <path id="Path_22" data-name="Path 22" d="M242.846,448.781a3.341,3.341,0,0,1-1.141-.663l.827-.989a2.768,2.768,0,0,0,1.739.644.9.9,0,0,0,.46-.1.3.3,0,0,0,.161-.272.253.253,0,0,0-.073-.191.608.608,0,0,0-.241-.119q-.169-.05-.6-.15a7.143,7.143,0,0,1-1.1-.326,1.625,1.625,0,0,1-.673-.491,1.3,1.3,0,0,1-.253-.838,1.623,1.623,0,0,1,.257-.912,1.673,1.673,0,0,1,.727-.605,2.61,2.61,0,0,1,1.091-.214,3.413,3.413,0,0,1,2.207.713l-.743,1.05a2.878,2.878,0,0,0-.75-.4,2.323,2.323,0,0,0-.751-.134.693.693,0,0,0-.4.1.291.291,0,0,0-.139.249.3.3,0,0,0,.077.219.669.669,0,0,0,.267.145,5.487,5.487,0,0,0,.59.15,6.438,6.438,0,0,1,1.1.322,1.553,1.553,0,0,1,.66.482,1.267,1.267,0,0,1,.233.789,1.562,1.562,0,0,1-.586,1.295,2.467,2.467,0,0,1-1.582.467A4.161,4.161,0,0,1,242.846,448.781Z" transform="translate(-205.703 -443.56)" fill="#f1f4f5"/>
      <path id="Path_23" data-name="Path 23" d="M253.094,445.065h-1.555V443.74h4.6v1.326h-1.555V449h-1.486Z" transform="translate(-210.528 -443.648)" fill="#f1f4f5"/>
      <path id="Path_24" data-name="Path 24" d="M264.815,449l-1.112-1.585h-.36V449h-1.486V443.74h2.521a2.27,2.27,0,0,1,1.042.234,1.752,1.752,0,0,1,.717.651,1.8,1.8,0,0,1-.862,2.624L266.507,449Zm-1.472-2.934h.911a.673.673,0,0,0,.434-.138.447.447,0,0,0,0-.7.676.676,0,0,0-.434-.138h-.911Z" transform="translate(-215.59 -443.648)" fill="#f1f4f5"/>
      <path id="Path_25" data-name="Path 25" d="M275.528,449l-.269-.7h-1.83l-.269.7h-1.678l2.023-5.263h1.678L277.205,449Zm-1.679-1.8h.989l-.491-1.28Z" transform="translate(-220.312 -443.648)" fill="#f1f4f5"/>
      <path id="Path_26" data-name="Path 26" d="M285.821,443.74a3.753,3.753,0,0,1,1.623.337,2.7,2.7,0,0,1,1.115.935,2.489,2.489,0,0,1,0,2.716,2.69,2.69,0,0,1-1.115.939,3.746,3.746,0,0,1-1.623.337h-1.962V443.74Zm.946,3.751a1.237,1.237,0,0,0,.487-.46,1.266,1.266,0,0,0,.176-.663,1.226,1.226,0,0,0-.663-1.115,1.47,1.47,0,0,0-.7-.164h-.72v2.566h.72A1.477,1.477,0,0,0,286.767,447.491Z" transform="translate(-226.384 -443.648)" fill="#f1f4f5"/>
      <path id="Path_27" data-name="Path 27" d="M294.81,447.893l2.5-2.827h-2.437V443.74h4.475v1.111l-2.482,2.827h2.521V449h-4.567Z" transform="translate(-231.757 -443.648)" fill="#f1f4f5"/>
      <path id="Path_28" data-name="Path 28" d="M305.367,443.74h1.486V449h-1.486Z" transform="translate(-236.936 -443.648)" fill="#f1f4f5"/>
      <path id="Path_29" data-name="Path 29" d="M314.507,445.065h-2.751v.59h2.505v1.326h-2.505v.7h2.751V449h-4.238V443.74h4.238Z" transform="translate(-239.341 -443.648)" fill="#f1f4f5"/>
    </g>
    <path id="Rectangle_2" data-name="Rectangle 2" d="M2.6,0H7.8a2.6,2.6,0,0,1,2.6,2.6V7.8a2.6,2.6,0,0,1-2.6,2.6H2.6A2.6,2.6,0,0,1,0,7.8V2.6A2.6,2.6,0,0,1,2.6,0Z" transform="translate(399.677 4449.809)" fill="#f1f4f5"/>
  </g>
</svg>
