<svg xmlns="http://www.w3.org/2000/svg" width="203" height="61.859" viewBox="0 0 203 61.859">
  <g id="Group_367" data-name="Group 367" transform="translate(-140.709 -377.161)">
    <g id="Group_363" data-name="Group 363" transform="translate(281.85 377.161)">
      <g id="Group_362" data-name="Group 362" transform="translate(0)">
        <g id="Group_361" data-name="Group 361">
          <path id="Rectangle_301" data-name="Rectangle 301" d="M12.1,0H49.757a12.1,12.1,0,0,1,12.1,12.1V49.759a12.1,12.1,0,0,1-12.1,12.1H12.1A12.1,12.1,0,0,1,0,49.758V12.1A12.1,12.1,0,0,1,12.1,0Z" fill="#fff"/>
          <path id="Path_658" data-name="Path 658" d="M367.282,381.471h27.644a91.581,91.581,0,0,1-13.552,23.922,90.856,90.856,0,0,0-19.406,2.622v-21.23A5.313,5.313,0,0,1,367.282,381.471Z" transform="translate(-359.157 -378.667)" fill="#008dd6"/>
          <path id="Path_659" data-name="Path 659" d="M361.969,439.8V425.955a77.337,77.337,0,0,1,15.888-1.167A114.636,114.636,0,0,1,361.969,439.8Z" transform="translate(-359.157 -393.79)" fill="#0052a0"/>
          <path id="Path_660" data-name="Path 660" d="M388.128,453.513h-13.91a105.961,105.961,0,0,0,19.319-26.8,61.538,61.538,0,0,1,6.412,1.6A117.031,117.031,0,0,1,388.128,453.513Z" transform="translate(-363.437 -394.473)" fill="#73aa17"/>
          <path id="Path_661" data-name="Path 661" d="M438.772,445.024V451.1a5.313,5.313,0,0,1-5.313,5.314H420.836a116.836,116.836,0,0,0,4.686-21.4A50.158,50.158,0,0,1,438.772,445.024Z" transform="translate(-379.725 -397.375)" fill="#0052a0"/>
          <path id="Path_662" data-name="Path 662" d="M427.479,381.471h8.3a5.313,5.313,0,0,1,5.313,5.314v28.055a58.506,58.506,0,0,0-12.548-5.906A128.833,128.833,0,0,0,427.479,381.471Z" transform="translate(-382.046 -378.667)" fill="#008dd6"/>
          <path id="Path_663" data-name="Path 663" d="M414.823,381.471h1.567a91.881,91.881,0,0,1-3.083,25.264c-1.812-.358-3.717-.659-5.714-.885A91.007,91.007,0,0,0,414.823,381.471Z" transform="translate(-375.098 -378.667)" fill="#73aa17"/>
        </g>
      </g>
    </g>
    <g id="Group_366" data-name="Group 366" transform="translate(140.709 388.5)">
      <g id="Group_364" data-name="Group 364">
        <path id="Path_664" data-name="Path 664" d="M140.709,397.873H145.7v6.976l5.946-6.976h5.9l-6.539,7.388,7.053,10.3h-5.972l-4.556-6.693-1.828,2.008v4.685h-4.994Z" transform="translate(-140.709 -395.736)" fill="#005c9e"/>
        <path id="Path_665" data-name="Path 665" d="M182.532,404.6v13.309h-4.969v-1.339a4.7,4.7,0,0,1-3.759,1.647,4.83,4.83,0,0,1-4.891-5.148V404.6h4.736v7.311a2.011,2.011,0,0,0,2.008,2.187,1.9,1.9,0,0,0,1.9-2.033V404.6Z" transform="translate(-150.564 -398.086)" fill="#005c9e"/>
        <path id="Path_666" data-name="Path 666" d="M203.013,404.124v4.118c-2.625,0-4.17,1.442-4.17,3.862v5.637h-4.969V404.433h4.969V406.8A4.689,4.689,0,0,1,203.013,404.124Z" transform="translate(-159.285 -397.921)" fill="#005c9e"/>
        <path id="Path_667" data-name="Path 667" d="M208.947,416.042l1.854-3.012a9,9,0,0,0,4.608,1.571c.927,0,1.261-.232,1.261-.67,0-.463-.772-.72-2.008-.978-2.419-.515-5.122-1.107-5.122-4.247,0-2.574,2.085-4.582,5.56-4.582a10.317,10.317,0,0,1,5.56,1.751l-1.673,3.037A7.945,7.945,0,0,0,215.1,407.5c-.695,0-1.158.36-1.158.746,0,.438.592.515,1.93.824,2.42.541,5.2,1.338,5.2,4.479,0,2.754-2.188,4.5-5.792,4.5A10.667,10.667,0,0,1,208.947,416.042Z" transform="translate(-164.551 -397.921)" fill="#005c9e"/>
        <path id="Path_668" data-name="Path 668" d="M237.151,418.375l.463-3.578a3.5,3.5,0,0,0,1.21.206,1.211,1.211,0,0,0,1.133-1.365V401.1h4.968v13.154a4.541,4.541,0,0,1-4.736,4.737A7.694,7.694,0,0,1,237.151,418.375Zm2.755-21.263a2.549,2.549,0,1,1,2.574,2.574A2.571,2.571,0,0,1,239.906,397.111Z" transform="translate(-174.405 -394.589)" fill="#005c9e"/>
        <path id="Path_669" data-name="Path 669" d="M265.531,409.89v7.852h-4.762v-.952a5.115,5.115,0,0,1-3.423,1.261c-2.857,0-5.123-1.75-5.123-4.247,0-2.6,2.522-4.428,5.741-4.428a7.627,7.627,0,0,1,2.805.593v-.078c0-1.312-1.184-2.085-2.729-2.085a6.444,6.444,0,0,0-3.217.9l-1.519-3.012a13.386,13.386,0,0,1,6.074-1.57C262.751,404.124,265.531,406.261,265.531,409.89Zm-4.762,3.913v-1.261a5.379,5.379,0,0,0-2.111-.412,1.582,1.582,0,0,0-1.725,1.545,1.474,1.474,0,0,0,1.622,1.442C259.738,415.116,260.666,414.575,260.768,413.8Z" transform="translate(-179.671 -397.921)" fill="#005c9e"/>
        <path id="Path_670" data-name="Path 670" d="M275.84,414.484l5.895-5.766H276.02V404.6h12.15l-.026,3.423-5.9,5.766h5.973v4.119H275.84Z" transform="translate(-187.923 -398.086)" fill="#005c9e"/>
        <path id="Path_671" data-name="Path 671" d="M312.478,397.4v17.994H307.51v-1.571a5.564,5.564,0,0,1-4.247,1.879c-3.578,0-6.1-2.883-6.1-6.976,0-4.067,2.523-6.95,6.1-6.95a5.562,5.562,0,0,1,4.247,1.88V397.4Zm-4.968,11.326a2.652,2.652,0,0,0-2.677-2.832,2.846,2.846,0,1,0,0,5.689A2.659,2.659,0,0,0,307.51,408.724Z" transform="translate(-195.372 -395.57)" fill="#005c9e"/>
        <path id="Path_672" data-name="Path 672" d="M323.815,421.46l1-3.193a5.018,5.018,0,0,0,1.878.747,1.827,1.827,0,0,0,1.339-.412l.257-.515L322.914,404.6h5.071l2.729,8.212,2.574-8.212h4.994l-5.019,13.412c-1.081,2.857-3.038,4.531-5.3,4.531A9.018,9.018,0,0,1,323.815,421.46Z" transform="translate(-204.37 -398.086)" fill="#005c9e"/>
      </g>
      <g id="Group_365" data-name="Group 365" transform="translate(0 25.614)">
        <path id="Path_673" data-name="Path 673" d="M149.887,443.855v5.708h-3.193v-4.927a1.356,1.356,0,0,0-1.353-1.475,1.282,1.282,0,0,0-1.284,1.371v5.031h-3.349v-8.97h3.349v.9a3.167,3.167,0,0,1,2.533-1.111A3.256,3.256,0,0,1,149.887,443.855Z" transform="translate(-140.709 -436.204)" fill="#005c9e"/>
        <path id="Path_674" data-name="Path 674" d="M165.678,444.272v5.291h-3.21v-.641a3.446,3.446,0,0,1-2.308.85c-1.926,0-3.453-1.18-3.453-2.863,0-1.752,1.7-2.984,3.869-2.984a5.143,5.143,0,0,1,1.891.4v-.052c0-.885-.8-1.405-1.839-1.405a4.345,4.345,0,0,0-2.169.607l-1.024-2.03a9.027,9.027,0,0,1,4.095-1.059A3.851,3.851,0,0,1,165.678,444.272Zm-3.21,2.637v-.85a3.623,3.623,0,0,0-1.423-.278,1.066,1.066,0,0,0-1.163,1.041.993.993,0,0,0,1.093.971C161.773,447.793,162.4,447.429,162.467,446.909Z" transform="translate(-146.299 -436.204)" fill="#005c9e"/>
        <path id="Path_675" data-name="Path 675" d="M188.583,444.272v5.291h-3.21v-.641a3.445,3.445,0,0,1-2.308.85c-1.926,0-3.452-1.18-3.452-2.863,0-1.752,1.7-2.984,3.868-2.984a5.143,5.143,0,0,1,1.891.4v-.052c0-.885-.8-1.405-1.839-1.405a4.345,4.345,0,0,0-2.169.607l-1.024-2.03a9.027,9.027,0,0,1,4.095-1.059A3.851,3.851,0,0,1,188.583,444.272Zm-3.21,2.637v-.85a3.622,3.622,0,0,0-1.422-.278,1.067,1.067,0,0,0-1.163,1.041.993.993,0,0,0,1.094.971C184.679,447.793,185.3,447.429,185.373,446.909Z" transform="translate(-154.302 -436.204)" fill="#005c9e"/>
        <path id="Path_676" data-name="Path 676" d="M205.11,440.705v8.97h-3.349v-.9a3.169,3.169,0,0,1-2.533,1.11,3.256,3.256,0,0,1-3.3-3.47v-5.708h3.193v4.928a1.356,1.356,0,0,0,1.353,1.475,1.283,1.283,0,0,0,1.284-1.371v-5.032Z" transform="translate(-160.003 -436.315)" fill="#005c9e"/>
        <path id="Path_677" data-name="Path 677" d="M218.348,447.641a3.6,3.6,0,0,1-2.308.919A2.906,2.906,0,0,1,213,445.524v-3.5h-1.128v-2.638H213v-2.464H216.2v2.464h1.77v2.638H216.2v2.845a.816.816,0,0,0,.763.92,1.307,1.307,0,0,0,.816-.26Z" transform="translate(-165.574 -434.992)" fill="#005c9e"/>
        <path id="Path_678" data-name="Path 678" d="M223.209,445.07a5.071,5.071,0,1,1,5.066,4.7A4.936,4.936,0,0,1,223.209,445.07Zm6.992,0A1.935,1.935,0,1,0,228.275,447,1.941,1.941,0,0,0,230.2,445.07Z" transform="translate(-169.534 -436.204)" fill="#005c9e"/>
        <path id="Path_679" data-name="Path 679" d="M239.741,448.418l1.249-2.03a6.061,6.061,0,0,0,3.106,1.059c.625,0,.85-.156.85-.451,0-.312-.52-.486-1.353-.66-1.63-.347-3.452-.746-3.452-2.863,0-1.735,1.405-3.088,3.747-3.088a6.948,6.948,0,0,1,3.747,1.18l-1.128,2.047a5.357,5.357,0,0,0-2.62-.954c-.469,0-.781.243-.781.5,0,.295.4.347,1.3.555,1.63.364,3.5.9,3.5,3.019,0,1.856-1.475,3.036-3.9,3.036A7.191,7.191,0,0,1,239.741,448.418Z" transform="translate(-175.31 -436.204)" fill="#005c9e"/>
        <path id="Path_680" data-name="Path 680" d="M259.892,447.641a3.6,3.6,0,0,1-2.308.919,2.906,2.906,0,0,1-3.036-3.036v-3.5H253.42v-2.638h1.128v-2.464h3.193v2.464h1.77v2.638h-1.77v2.845a.816.816,0,0,0,.763.92,1.309,1.309,0,0,0,.816-.26Z" transform="translate(-180.09 -434.992)" fill="#005c9e"/>
        <path id="Path_681" data-name="Path 681" d="M271.552,440.385v2.776a2.487,2.487,0,0,0-2.811,2.6v3.8h-3.349v-8.97h3.349v1.6A3.163,3.163,0,0,1,271.552,440.385Z" transform="translate(-184.273 -436.204)" fill="#005c9e"/>
        <path id="Path_682" data-name="Path 682" d="M284.842,444.272v5.291h-3.21v-.641a3.446,3.446,0,0,1-2.308.85c-1.926,0-3.453-1.18-3.453-2.863,0-1.752,1.7-2.984,3.869-2.984a5.142,5.142,0,0,1,1.891.4v-.052c0-.885-.8-1.405-1.839-1.405a4.345,4.345,0,0,0-2.168.607l-1.024-2.03a9.028,9.028,0,0,1,4.095-1.059A3.851,3.851,0,0,1,284.842,444.272Zm-3.21,2.637v-.85a3.623,3.623,0,0,0-1.423-.278,1.066,1.066,0,0,0-1.163,1.041.993.993,0,0,0,1.093.971C280.937,447.793,281.562,447.429,281.631,446.909Z" transform="translate(-187.934 -436.204)" fill="#005c9e"/>
        <path id="Path_683" data-name="Path 683" d="M301.98,435.852v12.127h-3.349v-1.058a3.748,3.748,0,0,1-2.862,1.266c-2.412,0-4.112-1.943-4.112-4.7,0-2.742,1.7-4.685,4.112-4.685a3.748,3.748,0,0,1,2.862,1.267v-4.216Zm-3.349,7.634a1.788,1.788,0,0,0-1.8-1.909,1.918,1.918,0,1,0,0,3.835A1.793,1.793,0,0,0,298.632,443.486Z" transform="translate(-193.449 -434.62)" fill="#005c9e"/>
        <path id="Path_684" data-name="Path 684" d="M309.763,447.368l3.973-3.887h-3.852v-2.776h8.189l-.017,2.308-3.974,3.887h4.025v2.776h-8.345Z" transform="translate(-199.775 -436.315)" fill="#005c9e"/>
        <path id="Path_685" data-name="Path 685" d="M324.8,435.659a1.718,1.718,0,1,1,1.735,1.734A1.734,1.734,0,0,1,324.8,435.659Zm.034,2.689h3.349v8.97h-3.349Z" transform="translate(-205.03 -433.958)" fill="#005c9e"/>
        <path id="Path_686" data-name="Path 686" d="M338.945,446.527l1.84,1.856a5.553,5.553,0,0,1-3.7,1.388,4.606,4.606,0,0,1-4.875-4.719,4.509,4.509,0,0,1,4.736-4.667c2.88,0,4.58,2.03,4.58,5.483H335.18a1.843,1.843,0,0,0,1.77,1.406A3.31,3.31,0,0,0,338.945,446.527Zm-3.712-2.412h3.261a1.632,1.632,0,0,0-1.544-1.232A1.823,1.823,0,0,0,335.233,444.116Z" transform="translate(-207.62 -436.204)" fill="#005c9e"/>
      </g>
    </g>
  </g>
</svg>
