<svg xmlns="http://www.w3.org/2000/svg" width="20.648" height="20.619" viewBox="0 0 20.648 20.619"><defs><style>.a{fill:#005c9e;}</style></defs><g transform="translate(-2.25 -2.25)"><path class="a" d="M16.242,2.25A6.628,6.628,0,0,0,9.614,8.878,6.532,6.532,0,0,0,9.9,10.8L2.25,18.451v4.418H6.668l7.651-7.651a6.628,6.628,0,0,0,8.549-5.8A6.458,6.458,0,0,0,21.654,5,6.628,6.628,0,0,0,16.242,2.25Zm0,11.782a5.155,5.155,0,0,1-1.473-.221l-.847-.258-.626.626-2.342,2.342L9.916,15.505,8.878,16.543l1.016,1.016L8.722,18.73,7.707,17.714,6.668,18.752l1.016,1.016L6.057,21.4H3.723V19.062l7.217-7.239.626-.626-.213-.7a5.258,5.258,0,0,1,2.5-6.215A5.155,5.155,0,0,1,21.4,8.7a4.926,4.926,0,0,1-.8,2.946,5.155,5.155,0,0,1-4.352,2.386Z" transform="translate(0 0)"/><path class="a" d="M25.446,10.473A1.473,1.473,0,1,1,23.973,9,1.473,1.473,0,0,1,25.446,10.473Z" transform="translate(-6.995 -2.332)"/></g></svg>